<svg id="Layer_1" data-name="Layer 1" xmlns="http://www.w3.org/2000/svg" viewBox="0 0 1080 1080"><defs><style>.cls-1{fill:#cfa64c;}.cls-2{fill:#129548;}.cls-3{fill:#5ab947;}.cls-4{fill:#116a37;}.cls-5{fill:#cfa74e;}</style></defs><title>PSX-logo</title><path class="cls-1" d="M865.54,201.83a232.77,232.77,0,0,1,12.94,28.67,341.7,341.7,0,0,1,20.27,79.42A345.63,345.63,0,0,1,902,359.6c-.74,59.66-15.2,115.77-44,168.12a352.27,352.27,0,0,1-38.63,57A372,372,0,0,1,753.76,646,355.14,355.14,0,0,1,653.2,697.42a366.18,366.18,0,0,1-74.46,15.92,343,343,0,0,1-48.27,2.12,375.09,375.09,0,0,1-90.58-14.14,356.59,356.59,0,0,1-102.67-47.8,365.62,365.62,0,0,1-63.88-54.8,355.77,355.77,0,0,1-81.17-144,347.81,347.81,0,0,1-12.87-72.66,354,354,0,0,1,15.28-130.95,337.29,337.29,0,0,1,19.24-47.76c.46-.95,1.07-1.83,1.62-2.75l.64.71C212,212.8,207.92,224.28,204.46,236A365.68,365.68,0,0,0,190.7,353.41a346.76,346.76,0,0,0,13.89,83.78,352.62,352.62,0,0,0,47.35,100,348.05,348.05,0,0,0,42,50.47c37.08,36.91,80.41,64,129.57,81.77a336.74,336.74,0,0,0,79.35,18,354.58,354.58,0,0,0,92.27-2.29,349.46,349.46,0,0,0,177.41-84.43c35.89-32.32,64.3-70.19,84.65-114a353.43,353.43,0,0,0,28.6-94.08,365.8,365.8,0,0,0-20.44-188c-.35-.91-.58-1.86-.86-2.8Z"/><path class="cls-2" d="M530.21,54.91v2.83q0,133,.06,266.05c0,2.53-.76,3.45-3.16,4.13-21.43,6.09-42.81,12.34-64.21,18.54-3.47,1-3.48,1-3.48-2.59V131c0-15.45,0-30.91,0-46.36,0-1.64.29-2.62,2-3.29q33.36-13,66.65-26.1A2.72,2.72,0,0,1,530.21,54.91Z"/><path class="cls-2" d="M549,54.36l12.83,5.07C580.34,66.69,598.79,74,617.3,81.16c2,.76,2.57,1.69,2.57,3.78q-.09,129.62,0,259.25c0,3-.81,3.08-3.3,2.35q-32.21-9.44-64.49-18.62c-2.44-.7-3.13-1.67-3.12-4.16q.1-126.37,0-252.76Z"/><path class="cls-2" d="M534.22,354c21.91.06,40.92,6,57.9,18.38,2.27,1.65,2.71,2.7.9,5.18-5.22,7.12-10.16,14.45-15,21.82-1.32,2-2.22,1.85-4,.65-9.42-6.32-19.4-11.45-30.67-13.61-7-1.34-14.06-1.6-20.89.93-7.61,2.81-10.75,8.47-9.39,16.43.73,4.28,3.54,6.9,7.1,8.85,6.92,3.79,14.52,5.7,22.07,7.72C553.06,423.22,564,426,574.11,431c11.3,5.59,20.66,13.23,23.9,26,6.62,26-3.35,53.59-35,61.78-32.07,8.27-61.31.71-87.6-19-5-3.77-4.9-3.89-.83-8.73,5.26-6.24,10.53-12.48,15.68-18.8,1.23-1.51,1.93-1.48,3.43-.28,10.2,8.21,21.35,14.61,34.38,17.12,8.16,1.58,16.38,2.05,24.48-.38,9.22-2.76,13.54-9.84,11.32-18.31-1-3.91-3.84-6.28-7.17-8.15-6.64-3.72-13.9-5.72-21.17-7.69-10.75-2.9-21.61-5.48-31.81-10.1-11.32-5.12-20.67-12.34-24.27-24.84-8.1-28,4.37-55.61,36.82-63.67,2.09-.52,4.23-.82,6.34-1.22C526.75,354,531,354.09,534.22,354Z"/><path class="cls-3" d="M623.94,364.92c1.18-.66,2.08.26,3,.65,13.71,5.85,27.39,11.77,41.12,17.59a5.39,5.39,0,0,1,3,3c6.64,14,13.35,28,20,42,1,2.23,1.63,2.63,3.42.48,6.55-7.86,13.32-15.53,20-23.31.92-1.08,1.59-1.65,3.17-1C731.88,410.6,746.3,416.74,761,423c-4.57,5.13-9,10.13-13.45,15.1-10,11.22-20,22.47-30.16,33.6-1.41,1.54-.77,2.55-.11,3.88q18,35.89,35.9,71.81c3.63,7.27,7.22,14.56,10.83,21.84-1.2.8-2-.08-2.86-.4-12.89-5-25.75-10.12-38.66-15.1a6.32,6.32,0,0,1-3.67-3.46Q706,524,693.1,497.66c-1.51-3.09-1.55-3.05-3.77-.4Q676.47,512.65,663.57,528c-1,1.22-1.92,1.88-3.71,1.16C644.27,523,628.65,516.85,613,510.71a2.68,2.68,0,0,1-.51-.4q13-13.92,26-27.82c9-9.62,18-19.28,27.09-28.81,1.59-1.66,1-2.86.2-4.41Q644.87,407.09,624,364.88Z"/><path class="cls-4" d="M329.57,570.41V419c0-1.44-.24-2.7,1.66-3.56,23.18-10.41,46.25-21.09,69.49-31.38A65.88,65.88,0,0,1,429,378.33c15.49.32,27,10.38,29.15,25.73,3.15,22.52-4,42-17.95,59.26s-32.11,29.18-52.75,37.3c-6.9,2.72-13.73,5.65-20.67,8.28-2.34.88-3,2.15-2.95,4.55.12,13.68,0,27.36.11,41,0,2.12-.64,3-2.61,3.76C350.82,562.16,340.38,566.25,329.57,570.41Zm34.29-115.08c0,7.18.13,14.36-.06,21.54-.07,2.73.83,2.6,2.78,1.73,4.37-1.94,8.81-3.74,13.2-5.64,8-3.45,16.39-6,23.43-11.36,11.31-8.54,18.84-19.08,17.74-34.11-.49-6.62-4.22-10.82-10.75-12.05-3.91-.73-7.63.05-11.26,1.23-11.64,3.79-22.44,9.61-33.73,14.24-1.48.61-1.35,1.7-1.35,2.88Q363.88,444.56,363.86,455.33Z"/><path class="cls-4" d="M370.58,379v-3.3q0-80.57-.06-161.13c0-2.32.66-3.39,2.78-4.3,21.84-9.3,43.63-18.73,65.44-28.12.7-.3,1.42-.57,2.38-1V345.77c0,1.67.13,3-2,3.9-22.3,9.48-44.53,19.13-66.78,28.73C371.89,378.58,371.43,378.72,370.58,379Z"/><path class="cls-3" d="M638.3,181.86a3.59,3.59,0,0,1,2.61.58c21.79,9.4,43.58,18.85,65.41,28.17,1.91.81,2.32,1.83,2.32,3.72q-.07,80.73,0,161.46c0,3.17,0,3.2-3,1.92q-32.57-14-65.14-28.06c-1.48-.63-2.32-1.3-2.32-3.17q.09-81.62.06-163.23C638.18,182.78,638.26,182.3,638.3,181.86Z"/><path class="cls-4" d="M281.51,417.06v-2.78q0-67.74-.05-135.47c0-2.15.53-3.18,2.61-4.07,21.85-9.3,43.64-18.74,65.44-28.14l2.65-1.14v3.24q0,67.74,0,135.47c0,1.67.1,3-2,3.88-22.3,9.49-44.52,19.14-66.78,28.73C282.85,417,282.37,417.53,281.51,417.06Z"/><path class="cls-3" d="M797.54,417.36,782,410.68c-17.39-7.49-34.76-15-52.18-22.45a3.62,3.62,0,0,1-2.6-3.92q.1-67.76,0-135.49v-2.55c1.32-.35,2.16.27,3,.65,21.71,9.36,43.4,18.77,65.13,28.07,1.7.73,2.34,1.53,2.34,3.4q-.07,68.19,0,136.37C797.7,415.52,797.61,416.28,797.54,417.36Z"/><path class="cls-1" d="M491.78,984l-16.2,24.23c-1.89,2.83-1.9,2.83-3.76.07q-7.49-11.12-15-22.23c-.37-.55-.57-1.27-1.52-1.56-.65.9-.36,2-.37,3,0,11.71-.06,23.41,0,35.12,0,2.17-.36,3.08-2.85,3-7.06-.14-7.06,0-7.06-7.06,0-16.13.05-32.26-.06-48.39,0-2.45.71-2.85,3.07-3.17,5.74-.77,9.13,1.4,11.88,6.42,3.58,6.53,8,12.61,12,18.87,1.73,2.67,1.77,2.66,3.56-.11,4.89-7.59,9.81-15.16,14.62-22.8,1.05-1.68,2.22-2.5,4.26-2.29,2.52.27,5.83-1,7.41.48,1.74,1.66.56,5,.57,7.64.06,15.73,0,31.47.08,47.21,0,2.32-.4,3.26-3,3.2-7-.15-7,0-7-7.06v-34.4Z"/><path class="cls-5" d="M809,916.74c0-12.36.07-24.56-.06-36.76,0-2.41.56-3.17,3.05-3.12,7,.15,7,0,7,7.14,0,16.14,0,32.28,0,48.42,0,2.26-.54,2.88-2.89,3-3.89.25-6.35-.91-8.78-4.18-9.32-12.53-19-24.75-28.75-37.26-.79,1.12-.49,2.2-.49,3.2,0,11.71-.06,23.42,0,35.13,0,2.14-.3,3.12-2.84,3.07-7.17-.12-7.18,0-7.18-7.22,0-16,.08-32.08-.06-48.12,0-2.7.83-3.07,3.3-3.26,4.35-.33,7,1.11,9.69,4.73,8.42,11.49,17.34,22.61,26.07,33.87A2.43,2.43,0,0,0,809,916.74Z"/><path class="cls-1" d="M740.06,826.78c.86-1.34.54-2.44.55-3.47,0-11.22,0-22.44,0-33.66,0-2,.41-2.74,2.58-2.75,7.35,0,7.35-.09,7.35,7.37,0,16-.06,31.89.05,47.83,0,2.47-.48,3.22-3.17,3.43-4,.32-6.2-1.37-8.44-4.34-8.86-11.78-17.94-23.39-27-35-.5-.65-.85-1.58-2.29-1.86v3.13c0,11.71,0,23.43,0,35.14,0,2.09-.44,2.9-2.76,2.88-7.32-.07-7.32,0-7.32-7.39,0-16,0-32.08,0-48.13,0-2.27.62-2.75,2.92-3.1,5.16-.79,8,1.68,10.83,5.5,8.08,10.88,16.49,21.53,24.78,32.26C738.66,825.28,739.29,825.91,740.06,826.78Z"/><path class="cls-5" d="M270.6,936.38c-17.15,0-30.29-13.11-30.28-30.21A30.27,30.27,0,0,1,271,875.87c17.11.07,30.48,13.28,30.51,30.15C301.57,923.07,288,936.39,270.6,936.38Zm.21-9.25c11.71,0,20.14-8.65,20.17-20.74s-8.62-21.27-20.12-21.28-20,8.9-20,21S259.36,927.12,270.81,927.13Z"/><path class="cls-5" d="M672.07,996.32c0-8.85,0-17.71,0-26.56,0-2,.53-2.72,2.63-2.68,7.18.12,14.37-.21,21.54.13,10.9.51,19.84,5,25.19,14.84,5.51,10.15,5.14,20.49-1.12,30.21-5.77,9-14.71,12.74-25,13.23-7,.33-14,0-21,.11-1.94,0-2.25-.73-2.24-2.42C672.1,1014.23,672.07,1005.27,672.07,996.32Zm9.93,0c0,5.8.1,11.6,0,17.39-.07,2.26.69,2.89,2.85,2.79,3.63-.19,7.27,0,10.9-.15,10.2-.36,17.87-7.5,18.69-17.31,1-11.75-5-20.34-15.64-22.49-4.77-1-9.61-.18-14.4-.5-2.09-.14-2.41.79-2.39,2.59C682.05,984.5,682,990.4,682,996.29Z"/><path class="cls-5" d="M886.62,915.52c0,3-.13,5.91,0,8.85a4.91,4.91,0,0,1-2.24,4.68c-11.8,8.87-28.93,9.85-40.1,2.17-13.43-9.24-16.66-29.21-6.71-43,6.58-9.11,15.83-12.73,26.92-12.18a32.49,32.49,0,0,1,17.83,6.14c1.52,1.09,1.94,2,.51,3.47s-2.71,4.09-4.58,4.86-3.53-1.9-5.41-2.85c-10.69-5.38-22.23-2.38-27.67,7.37-5.86,10.5-2.7,24.22,7.16,29.75,7.71,4.32,15.49,3.24,23-.84a2.87,2.87,0,0,0,1.51-2.94c-.08-2.35-.11-4.72,0-7.07.09-1.77-.45-2.46-2.31-2.39-3.54.13-7.08,0-10.62.06-1.51,0-2-.47-2.08-2-.33-6.78-.39-6.78,6.49-6.78,5.12,0,10.23.11,15.34,0,2.39-.08,3,.75,2.92,3C886.48,909,886.62,912.28,886.62,915.52Z"/><path class="cls-1" d="M611.65,996.35c0-8.85.06-17.71,0-26.56,0-2,.54-2.72,2.65-2.71q19,.13,38.07,0c1.88,0,2.53.46,2.54,2.44,0,6.52.1,6.52-6.47,6.52-8.07,0-16.14.07-24.2,0-2.07,0-2.74.57-2.64,2.64.16,3.44.15,6.89,0,10.33-.09,2,.61,2.49,2.51,2.47,8.07-.1,16.13,0,24.2-.08,2,0,3,.28,2.92,2.67-.1,6.31,0,6.31-6.35,6.31-6.89,0-13.78.08-20.66-.05-2.11,0-2.7.68-2.62,2.7.14,3.54.2,7.09,0,10.62-.16,2.51.94,2.88,3.08,2.86,9.15-.09,18.3,0,27.45-.1,2.53,0,3.43.53,3.35,3.22-.18,6,0,6-6.09,6-11.61,0-23.22-.07-34.83.06-2.39,0-2.94-.72-2.91-3C611.73,1013.87,611.65,1005.11,611.65,996.35Z"/><path class="cls-1" d="M462.4,906.36c0-9,.06-17.9,0-26.85,0-2.07.57-2.64,2.64-2.63,12.68.1,25.37.08,38.05,0,1.92,0,2.76.32,2.75,2.53,0,6.4.07,6.4-6.27,6.4-8.16,0-16.33,0-24.49,0-2,0-2.82.5-2.73,2.64.16,3.53.15,7.08,0,10.62-.08,2,.73,2.5,2.58,2.48,8.07-.07,16.13,0,24.19-.08,2.17,0,2.87.51,2.84,2.77-.09,6.17,0,6.17-6.17,6.17-7,0-14,.07-20.94,0-1.95,0-2.58.56-2.5,2.49a104.49,104.49,0,0,1,0,10.62c-.18,2.61.87,3,3.2,3,9.14-.13,18.29,0,27.43-.11,2.38,0,3.22.48,3.15,3-.17,6,0,6-6.08,6-11.6,0-23.2-.06-34.81,0-2.17,0-2.87-.52-2.83-2.78C462.48,923.86,462.4,915.11,462.4,906.36Z"/><path class="cls-1" d="M900.39,906.06c0-8.85.07-17.7,0-26.55,0-2.1.64-2.64,2.67-2.62q19,.12,38.05,0c1.9,0,2.52.5,2.52,2.47,0,6.46.1,6.46-6.45,6.46-8.07,0-16.13.07-24.19,0-2.1,0-2.71.65-2.63,2.68.15,3.54.16,7.09,0,10.62-.1,2,.71,2.47,2.55,2.45,8.07-.07,16.13.05,24.19-.08,2.19,0,2.87.56,2.85,2.8-.08,6.14,0,6.14-6.16,6.14-7,0-14,.07-21,0-2,0-2.54.62-2.47,2.52.13,3.54.16,7.09,0,10.62-.12,2.27.51,3,2.9,3,9.34-.15,18.69,0,28-.11,2.17,0,2.86.51,2.83,2.76-.09,6.21,0,6.21-6.14,6.21-11.6,0-23.2-.06-34.81,0-2.2,0-2.82-.56-2.79-2.78C900.47,923.76,900.39,914.91,900.39,906.06Z"/><path class="cls-1" d="M686.15,906.06c0,8.86,0,17.71,0,26.57,0,1.9-.3,2.77-2.52,2.77-7.41,0-7.41.1-7.41-7.31,0-5-.08-10,0-15.05,0-2-.6-2.55-2.53-2.53q-11.81.13-23.61,0c-2,0-2.51.61-2.48,2.53.1,6.59,0,13.18.07,19.77,0,1.82-.34,2.57-2.39,2.58-7.62.07-7.61.15-7.61-7.39,0-15.94,0-31.88-.06-47.82,0-2.42.34-3.42,3.14-3.33,6.88.22,6.89.06,6.89,7,0,5,0,10,0,15.05,0,1.79.31,2.7,2.39,2.68q12-.15,23.91,0c1.89,0,2.31-.73,2.29-2.45-.07-6.49,0-13-.06-19.48,0-2,.37-2.73,2.55-2.73,7.38,0,7.38-.07,7.38,7.35Z"/><path class="cls-5" d="M426.69,876.93c-7.67,7.94-14.87,15.49-22.19,22.9-1.59,1.6-1.94,2.54-.37,4.53,7.51,9.58,14.8,19.34,22.17,29,.34.45.63.93,1.29,1.91-4,0-7.44.05-10.92,0-1.35,0-1.91-1.26-2.62-2.17-5.65-7.42-11.35-14.81-16.89-22.32-1.28-1.72-2.16-1.67-3.35-.15a1,1,0,0,1-.21.2c-7.36,4.78-8.19,11.91-7.5,19.82.4,4.64.07,4.67-4.58,4.67-5.25,0-5.25,0-5.25-5.27,0-16.63,0-33.25,0-49.88,0-2.43.34-3.44,3.15-3.34,6.79.22,6.8,0,6.8,6.75s0,13.38,0,20.07c0,.65-.35,1.54.35,1.9.94.49,1.33-.56,1.82-1.07,8-8.39,16-16.76,23.95-25.25a6.42,6.42,0,0,1,5.62-2.37C420.65,877.08,423.4,876.93,426.69,876.93Z"/><path class="cls-5" d="M457,815.89q8.91-9.42,17.82-18.83c2.85-3,5.71-6,8.57-9a2.75,2.75,0,0,1,2-1.13h10.49l.59.91A47.75,47.75,0,0,0,492.7,791c-6.19,6.33-12.3,12.74-18.52,19-1.34,1.37-1.57,2.24-.27,3.9,7.66,9.85,15.17,19.81,22.72,29.74.29.38.54.78,1.14,1.65-4,0-7.55,0-11.12,0-1.11,0-1.62-1.05-2.2-1.81-5.72-7.5-11.47-15-17.08-22.55-1.29-1.74-1.83-1.92-3.71-.44-5.89,4.64-8.22,10.24-7.45,17.84.71,7,.15,7-6.93,7.05-2.2,0-3-.4-3-2.87q.17-26.28,0-52.54c0-2.48.7-3.17,3.14-3.13,7,.11,7,0,7,6.93v21.76Z"/><path class="cls-5" d="M435.43,845.39c-2.95,0-5.79-.07-8.62,0-1.44.06-1.8-.82-2.23-1.86-1.42-3.45-2.93-6.86-4.3-10.34a2.77,2.77,0,0,0-3-2.08c-7.87.09-15.74.11-23.62,0a3.22,3.22,0,0,0-3.46,2.42c-1.34,3.38-2.88,6.68-4.19,10.07a2.49,2.49,0,0,1-2.89,1.8,39.21,39.21,0,0,0-5.31,0c-2.44.18-2.57-.66-1.68-2.68,7.19-16.27,14.28-32.56,21.41-48.85.16-.36.34-.71.49-1.07,3-7,3-6.94,10.52-6.4a2.27,2.27,0,0,1,2.25,1.47q12.3,28.38,24.66,56.73A5,5,0,0,1,435.43,845.39ZM405.25,798.1c-3.46,8.12-6.61,15.46-9.71,22.81-.41,1,.19,1.47,1.17,1.47h17.38c1,0,1.56-.28,1.08-1.39Z"/><path class="cls-5" d="M628.36,845.4c3.18-7.31,6.18-14.22,9.2-21.13,5.15-11.77,10.38-23.5,15.41-35.33.86-2,1.92-2.55,3.94-2.53,6.57.06,6.52,0,9.19,6.14q10.88,25,21.81,49.88c1.3,3,1.32,3-1.82,3-7.43,0-7.43,0-10.32-6.95-3-7.27-3-7.27-10.72-7.27-6,0-12,.07-18,0a3.21,3.21,0,0,0-3.54,2.32c-1.32,3.38-2.86,6.67-4.18,10a2.49,2.49,0,0,1-2.8,1.92C634,845.3,631.45,845.4,628.36,845.4Zm30.24-47.27c-3.5,8.14-6.67,15.5-9.82,22.86-.61,1.43.41,1.4,1.35,1.4,5.7,0,11.4,0,17.1,0,1.46,0,1.7-.54,1.15-1.77-1.15-2.6-2.28-5.21-3.41-7.82Z"/><path class="cls-5" d="M751.44,935.34c-3.3,1-5.28-.79-6.36-4.5-.77-2.62-2.18-5.05-3.13-7.62a2.73,2.73,0,0,0-3-2.1q-12,.14-23.91,0a2.68,2.68,0,0,0-2.87,1.91c-1.41,3.46-3,6.85-4.32,10.33a2.63,2.63,0,0,1-3,2c-2.44-.18-6.14.75-7-.47-1.28-1.71,1.19-4.4,2.14-6.6,7.09-16.4,14.34-32.73,21.4-49.15,1-2.22,2.25-2.55,4.43-2.79,4.56-.51,6.79,1.07,8.61,5.47,6.84,16.61,14.22,33,21.39,49.47,1.77,4,1.76,4-2.72,4Zm-24.08-46.22-.8.08c-3.24,7.6-6.49,15.19-9.89,23.15,6.57,0,12.64,0,18.7,0,1.3,0,1.9-.42,1.32-1.74Q732,899.87,727.36,889.12Z"/><path class="cls-1" d="M329.85,816c0-8.85,0-17.7,0-26.54,0-1.91.54-2.55,2.48-2.52,7.77.12,15.54-.15,23.3.16,13.7.54,22.09,12,18.59,25-2,7.32-9.25,12.91-18,14a90.1,90.1,0,0,1-13.54.37c-2.37-.07-3.3.49-3.18,3,.21,4.52,0,9,.09,13.57,0,1.78-.53,2.33-2.33,2.37-7.39.17-7.39.23-7.39-7Zm9.69-9.56c0,3,.06,5.9,0,8.85,0,1.51.48,2.1,2,2.07,4.23-.08,8.46.1,12.69-.11,6.37-.31,10.59-4.75,10.55-10.79S360.62,796.22,354,796c-4.13-.16-8.26,0-12.39-.08-1.76,0-2.18.68-2.13,2.26C339.61,800.91,339.54,803.66,339.54,806.42Z"/><path class="cls-5" d="M554.21,846.14A36.81,36.81,0,0,1,532,838.55c-1.66-1.25-1.94-2.2-.29-3.61s2.35-4.23,4.42-4.5c1.88-.23,3.37,2.06,5.11,3.12a23.35,23.35,0,0,0,17.52,3.22c4-.83,6.12-3.15,6.34-6.36.25-3.81-1.11-5.8-5.25-7.54-3.82-1.6-7.9-2.32-11.87-3.43-3.6-1-7.21-2.08-10.16-4.48-9-7.26-7-21.82,3.86-26.63s20.92-2.28,30.4,4c.79.52,1.1,1.06.43,1.88-.06.08-.09.17-.15.25-1.32,1.84-2.28,4.28-4.06,5.35-2.16,1.29-3.79-1.54-5.73-2.37-4.51-1.92-9-3.41-14-2.26-3.8.87-6,3-6.24,6.11-.34,3.66,1,5.72,4.91,7.46s8.47,2.47,12.69,3.77c3.67,1.14,7.31,2.39,10.27,5,8.65,7.49,5.7,22.14-5.37,26.67A26.8,26.8,0,0,1,554.21,846.14Z"/><path class="cls-5" d="M160.22,936.3c-8.92-.23-16.45-2.62-23.06-7.76-1.36-1.06-1.76-1.92-.41-3.3,1.5-1.54,2.57-4,4.35-4.67,2-.75,3.43,2,5.23,3,5.3,3,10.84,4.49,16.94,3.51,4-.64,6.64-3,7.17-6.37s-1-5.84-5.1-7.64-8.86-2.52-13.25-3.91a51.44,51.44,0,0,1-5.78-2.16c-5.35-2.48-8.41-6.64-8.72-12.62-.34-6.52,2.16-11.7,7.76-15.17,8.51-5.29,22.81-3.75,32,3.21a1.32,1.32,0,0,1,.25,2.21c-.06.08-.13.15-.18.23-1.31,1.84-2.26,4.53-4,5.29s-3.79-1.77-5.77-2.7A23.14,23.14,0,0,0,155,885.1c-3.1.34-5.71,1.57-7,4.62-1.47,3.41-.16,6.72,3.43,8.62,3.24,1.72,6.83,2.43,10.33,3.37,3.89,1,7.77,2.1,11.27,4.16,9.26,5.44,10,19.19,1.49,25.81A24,24,0,0,1,160.22,936.3Z"/><path class="cls-5" d="M568,876.93c-6.06,8.5-11.73,16.5-17.44,24.46-2.9,4-3,4-.09,8.09,5.94,8.42,11.9,16.81,18.27,25.81-4,0-7.58,0-11.12,0-.92,0-1.19-.93-1.63-1.56-4.33-6.2-8.74-12.34-13-18.62-1.3-2-1.9-1.59-3,0-4,5.91-8.26,11.72-12.27,17.66-1.22,1.8-2.51,2.77-4.79,2.59-2.53-.2-5.1,0-7.56,0-.56-1,.16-1.41.53-1.92,6.11-8.54,12.2-17.1,18.39-25.59,1.17-1.6,1.18-2.71,0-4.36-5.78-7.92-11.42-16-17.11-24a4.84,4.84,0,0,1-1.34-2.58c3.42,0,6.8,0,10.18,0,1.23,0,1.64.9,2.19,1.69,3.92,5.65,8,11.22,11.71,17,1.61,2.47,2.41,2,3.79-.08,3.78-5.61,7.73-11.12,11.55-16.71a3.69,3.69,0,0,1,3.59-1.92C561.7,877,564.55,876.93,568,876.93Z"/><path class="cls-5" d="M603.4,936.38c-16.44,0-29.35-12.19-30.11-28-.83-17.17,10.39-30.63,26.86-32.22,9.12-.88,17.32,1.24,24.38,7.32,1.3,1.12,1.41,1.81.22,3-1.58,1.61-2.66,4.11-4.52,5-2.27,1-3.61-2-5.42-3.07-7.54-4.59-16.3-4.43-23.24.69-6.61,4.89-9.48,14.8-6.89,23.76a19.63,19.63,0,0,0,29.83,11.22,12.45,12.45,0,0,1,1.48-1c1.68-.74,2.85-3.51,4.47-2.77,2.1,1,3.61,3.23,5.34,5,1.12,1.13,0,1.74-.69,2.37C618.89,933.54,611.57,936.59,603.4,936.38Z"/><path class="cls-5" d="M341.57,936.39a29.52,29.52,0,0,1-29.77-27.34c-1.38-15.77,8.9-29.91,24.11-32.56,9.91-1.73,19.15.13,27.07,6.89,1.28,1.09,1.49,1.91.37,3.1-.07.07-.12.16-.19.23-1.49,1.7-2.7,4.17-4.56,4.87s-3.46-2-5.23-3.07c-6.75-4.11-13.69-4.82-20.7-1s-10.21,10.13-10.33,18c-.16,11.1,5.94,19.56,15.54,21.42a20.64,20.64,0,0,0,18.79-5.48c1.69-1.57,2.59-1.25,4,.23,4.93,5.06,5,5-.87,9.22A30,30,0,0,1,341.57,936.39Z"/><path class="cls-5" d="M216.1,910.84c0,7.27-.06,14.55,0,21.82,0,2-.37,2.74-2.55,2.74-7.52,0-7.52.09-7.52-7.48,0-13,0-25.95.05-38.93,0-2.13-.46-3-2.75-2.86-4.42.18-8.85,0-13.27.08-1.82,0-2.57-.37-2.59-2.42,0-6.87-.14-6.86,6.67-6.86,12.58,0,25.17,0,37.75,0,2.15,0,3.12.3,3.06,2.83-.15,6.46,0,6.46-6.47,6.46-3.14,0-6.3.18-9.43,0-2.57-.19-3.09.82-3,3.18C216.19,896.48,216.1,903.66,216.1,910.84Z"/><path class="cls-1" d="M601,820.59c0-7.28-.08-14.57,0-21.84,0-2.26-.7-2.89-2.87-2.81-4.43.14-8.86,0-13.28.08-1.93,0-2.79-.37-2.79-2.57,0-6.49-.11-6.49,6.51-6.49,12.59,0,25.19,0,37.78-.05,2.35,0,3.27.44,3.21,3-.16,6,0,6-6,6-3.25,0-6.51.16-9.74-.05-2.45-.17-2.91.8-2.89,3,.08,14.47,0,28.93.1,43.4,0,2.42-.59,3.15-3.07,3.1-7-.14-7,0-7-7.15Z"/><path class="cls-1" d="M567.37,1000.55c0-7.18-.11-14.37.06-21.54.06-2.43-.75-3-3-2.91-4.42.16-8.86,0-13.28.07-1.58,0-2.23-.38-2.3-2.12-.27-6.93-.34-6.92,6.61-6.92,12.59,0,25.18,0,37.77,0,2.19,0,3.1.4,3,2.87-.13,6.2,0,6.2-6.16,6.2-3.25,0-6.5.15-9.74,0-2.39-.14-3,.73-3,3,.09,14.46,0,28.92.1,43.38,0,2.43-.63,3.16-3.09,3.11-7-.13-7,0-7-7.06Z"/><path class="cls-5" d="M367.8,991.85c0,7.37.06,14.75,0,22.12,0,1.95.6,2.51,2.53,2.49,8.55-.09,17.1,0,25.65-.07,2,0,2.74.44,2.74,2.6,0,6.57.08,6.57-6.38,6.57-10.61,0-21.23,0-31.84,0-2,0-2.68-.45-2.67-2.58q.12-26.68,0-53.37c0-1.83.38-2.56,2.42-2.58,7.57-.07,7.57-.16,7.57,7.38Z"/><path class="cls-5" d="M507.83,816c0-8.86,0-17.71,0-26.57,0-1.9.51-2.51,2.49-2.53,7.5,0,7.5-.13,7.5,7.48,0,16,0,32.08.06,48.11,0,2.33-.61,3-3,3-7.06-.1-7.06,0-7.06-7Z"/><path class="cls-5" d="M522.63,996.32c0-8.85,0-17.71,0-26.56,0-2,.52-2.69,2.62-2.69,7.37,0,7.37-.08,7.37,7.31,0,16.14,0,32.27,0,48.41,0,2.18-.54,2.84-2.78,2.82-7.22-.06-7.22,0-7.22-7.15Z"/><path class="cls-1" d="M414.85,996.18c0-8.85,0-17.7,0-26.56,0-1.89.51-2.52,2.47-2.54,7.27-.08,7.27-.15,7.27,7.12,0,16.13,0,32.26.05,48.39,0,2.24-.48,3.06-2.9,3-6.85-.11-6.85,0-6.85-6.71Z"/><path class="cls-5" d="M865.54,201.83l-1,0a56.5,56.5,0,0,1-4.21-10l0,0A45.54,45.54,0,0,1,865.54,201.83Z"/><path class="cls-5" d="M216.08,201.34l-.64-.71a30.68,30.68,0,0,1,4.75-8.81l0,0A66,66,0,0,1,216.08,201.34Z"/><path class="cls-5" d="M860.28,191.77c-.14-.19-.27-.39-.41-.59.6-.07.18.46.37.63Z"/><path class="cls-5" d="M220.19,191.82l.11-.78c.59.38-.08.5-.15.74Z"/><path class="cls-3" d="M624,364.88l0,0Z"/></svg>