<?xml version="1.0" encoding="utf-8"?>
<!-- Generator: Adobe Illustrator 24.0.1, SVG Export Plug-In . SVG Version: 6.00 Build 0)  -->
<svg version="1.1" id="Layer_1" xmlns="http://www.w3.org/2000/svg" xmlns:xlink="http://www.w3.org/1999/xlink" x="0px" y="0px"
	 viewBox="0 0 864 864" style="enable-background:new 0 0 864 864;" xml:space="preserve">
<style type="text/css">
	.st0{fill:#006037;}
	.st1{fill:url(#SVGID_1_);}
	.st2{fill:url(#SVGID_2_);}
	.st3{fill:url(#SVGID_3_);}
	.st4{fill:url(#SVGID_4_);}
	.st5{fill:url(#SVGID_5_);}
	.st6{fill:#FFFFFF;}
	.st7{fill-rule:evenodd;clip-rule:evenodd;fill:#006037;}
</style>
<rect x="254.56" y="710.87" class="st0" width="342.23" height="87.38"/>
<g>
	<linearGradient id="SVGID_1_" gradientUnits="userSpaceOnUse" x1="232.7998" y1="360.7083" x2="631.248" y2="360.7083">
		<stop  offset="0" style="stop-color:#6BB39E"/>
		<stop  offset="1" style="stop-color:#008076"/>
	</linearGradient>
	<circle class="st1" cx="432.02" cy="360.71" r="199.22"/>
	
		<radialGradient id="SVGID_2_" cx="531.6359" cy="363.8767" r="121.9775" fx="437.4603" fy="372.1684" gradientUnits="userSpaceOnUse">
		<stop  offset="0" style="stop-color:#6BB39E"/>
		<stop  offset="1" style="stop-color:#4BA7C6"/>
	</radialGradient>
	<path class="st2" d="M576.03,223.04l-144,144l137.67,137.67c37.93-36.27,61.56-87.38,61.56-144
		C631.25,307.31,610.23,258.81,576.03,223.04z"/>
	<linearGradient id="SVGID_3_" gradientUnits="userSpaceOnUse" x1="576.0272" y1="264.2647" x2="288.0205" y2="264.2647">
		<stop  offset="0" style="stop-color:#089592"/>
		<stop  offset="1" style="stop-color:#106B64"/>
	</linearGradient>
	<path class="st3" d="M432.02,367.05l144-144c-36.27-37.93-87.38-61.56-144-61.56c-56.63,0-107.73,23.63-144,61.56L432.02,367.05z"
		/>
	<linearGradient id="SVGID_4_" gradientUnits="userSpaceOnUse" x1="232.7998" y1="363.8767" x2="432.0239" y2="363.8767">
		<stop  offset="0" style="stop-color:#8FBC3F"/>
		<stop  offset="1" style="stop-color:#008076"/>
	</linearGradient>
	<path class="st4" d="M288.02,223.04c-34.21,35.77-55.22,84.26-55.22,137.67c0,56.63,23.63,107.73,61.56,144l137.67-137.67
		L288.02,223.04z"/>
	<linearGradient id="SVGID_5_" gradientUnits="userSpaceOnUse" x1="294.3575" y1="463.4888" x2="569.6904" y2="463.4888">
		<stop  offset="0" style="stop-color:#057A83"/>
		<stop  offset="1" style="stop-color:#0088CA"/>
	</linearGradient>
	<path class="st5" d="M294.36,504.71c35.77,34.21,84.26,55.22,137.67,55.22s101.9-21.01,137.67-55.22L432.02,367.05L294.36,504.71z"
		/>
	<path class="st6" d="M412.38,272.83c-4.53-4.41-7.93-9.53-9.95-15.55c-6.22-18.53,2.86-38.7,20.89-46.4
		c0.38-0.16,0.74-0.34,1.11-0.52c1.41-0.52,2.82-1.05,4.23-1.57c0.05,0.08,0.1,0.17,0.15,0.25c-0.96,0.77-1.9,1.56-2.87,2.32
		c-6.91,5.38-11.23,12.32-12.69,21c-2.82,16.67,8.29,33.13,24.88,36.84c13.37,2.99,26.48-2.28,34.39-13.77
		c0.68-0.99,1.57-1.83,2.35-2.74c0.34,0.2,0.25,0.43,0.19,0.59c-2.2,5.96-4.56,11.84-8.87,16.68c-5.62,6.31-12.5,10.49-20.8,12.07
		c-12.14,2.32-22.94-0.64-32.33-8.71C412.85,273.16,412.61,273,412.38,272.83z M456.44,226.29c-2.67,1.34-5.36,2.63-7.98,4.06
		c-0.93,0.51-1.45,0.37-2.15-0.36c-2.13-2.22-4.33-4.36-6.5-6.53l0.02-0.01c-0.23,0.44-0.09,0.89-0.02,1.33
		c0.42,2.72,0.81,5.44,1.32,8.15c0.15,0.8-0.02,1.17-0.74,1.52c-2.54,1.25-5.06,2.55-7.58,3.85c-0.3,0.15-0.74,0.18-0.81,0.7
		c2.89,0.45,5.75,0.94,8.63,1.33c1.18,0.16,1.99,0.44,1.96,1.88c-0.02,0.89,0.25,1.78,0.4,2.67c0.34,2.06,0.68,4.12,1.06,6.46
		c1.29-2.52,2.44-4.74,3.57-6.97c1.38-2.73,1.36-2.7,4.36-2.19c2.45,0.42,4.91,0.77,7.44,1.16c-0.14-0.57-0.52-0.78-0.8-1.06
		c-1.94-1.96-3.87-3.93-5.86-5.84c-0.57-0.55-0.65-0.96-0.28-1.67c1.42-2.73,2.76-5.5,4.13-8.25
		C456.55,226.44,456.5,226.37,456.44,226.29z"/>
	<path class="st6" d="M399.3,517.87c-6.64-2.24-11.3-6.55-13.75-13.16c-0.53-1.43-0.85-2.92-1.05-4.43
		c-0.04-0.25-0.29-0.83,0.26-0.74c0.93,0.14,0.89-0.53,1.04-1.03c5.56-19.21,11.1-38.43,16.67-57.64c0.26-0.91,0.25-1.23-0.86-1.07
		c-1.13,0.16-2.3,0.08-3.45,0.02c-0.72-0.03-0.96,0.24-0.89,0.92c0.04,0.37,0,0.74,0.01,1.11c0,0.46,0.09,0.93-0.66,0.84
		c-0.58-0.07-1.15,0.02-1.09-0.89c0.14-2.05,0.21-4.11,0.27-6.16c0.02-0.61,0.19-0.9,0.86-0.86c0.7,0.04,1.4-0.02,2.1-0.04
		c6.49,0.02,12.97,0.03,19.46,0.06c0.55,0,0.91-0.17,0.96-0.69c0.16-1.61,1.13-2.08,2.59-1.97c0.5,0.04,1.03,0.05,0.96-0.72
		c-0.04-0.47,0.28-0.52,0.64-0.51c0.49,0,0.99-0.03,1.48,0.01c0.63,0.05,0.94-0.17,0.84-0.83c-0.11-0.73,0.14-1.09,0.93-0.98
		c0.58,0.08,0.67-0.29,0.66-0.76c-0.02-0.7,0.02-1.4-0.01-2.09c-0.04-0.77-0.02-1.44,1.05-1.28c0.11,0.02,0.34-0.07,0.34-0.08
		c-0.27-1.43,1.94-1.74,1.47-3.3c-0.12-0.4-0.24-0.99,0.27-1.36c1.67,0.14,1.66,0.14,1.68,1.8c0.01,0.59-0.19,1.32,0.82,1.25
		c0.1,1.25,1.55,1.51,1.88,2.48c0.26,0.77,0.08,1.71,0.04,2.58c-0.03,0.57,0.14,0.87,0.75,0.78c0.74-0.11,0.95,0.29,0.88,0.94
		c-0.09,0.76,0.35,0.83,0.97,0.88c0.81,0.06,1.92-0.55,2.17,1.02c0.06,0.39,1.07,0.3,1.61,0.27c0.94-0.06,1.4,0.35,1.51,1.19
		c0.16,1.19,0.82,1.43,1.95,1.42c6.79-0.06,13.59-0.02,20.38-0.05c0.87,0,1.14,0.17,1.22,1.12c0.15,1.89,0.2,3.77,0.2,5.65
		c0,0.59,0.1,1.12-0.82,1.15c-0.91,0.03-0.74-0.53-0.77-1.04c-0.11-1.87-0.11-1.86-1.97-1.87c-1.11-0.01-2.23,0.03-3.33-0.07
		c-1.05-0.09-1.01,0.35-0.78,1.12c1.03,3.47,2.02,6.96,3.05,10.43c4.66,15.71,9.34,31.41,14.01,47.11c0.21,0.7,0.15,1.62,1.43,1.19
		c0.65-0.22,0.37,0.45,0.34,0.74c-0.54,4.61-2.4,8.64-5.67,11.92c-6.1,6.1-13.44,8.07-21.63,5.47c-8.05-2.56-12.8-8.34-14.38-16.65
		c-0.1-0.51-0.8-1.53,0.69-1.54c0.36,0,0.38-0.67,0.49-1.06c4.27-14.76,8.54-29.52,12.81-44.28c1.38-4.77,2.76-9.54,4.19-14.47
		c-1.54,0-2.96,0.02-4.39,0c-4.44-0.06-8.89-0.1-13.33-0.22c-1.07-0.03-1.3,0.35-1.29,1.34c0.02,4.9-0.02,9.8-0.06,14.7
		c-0.08,11.11-0.09,22.23-0.27,33.34c-0.15,9.14-0.13,18.27-0.24,27.41c-0.01,0.94,0.05,1.64,1.24,1.58
		c1.15-0.06,0.28,1.11,0.82,1.39c0.45,0.23,1.39-0.31,1.24,0.81c-0.1,0.8,0.28,1.01,1,0.94c0.3-0.03,0.78-0.09,0.64,0.44
		c-0.21,0.82,0.2,0.94,0.83,0.85c0.72-0.1,0.85,0.41,0.87,0.9c0.03,0.9,0.48,1.1,1.27,0.95c0.44-0.08,0.9-0.09,1.35-0.12
		c0.58-0.03,1.16-0.13,1.16,0.8c0,0.89-0.59,0.73-1.09,0.73c-5.93,0-11.86,0-17.79,0c-0.45,0-0.9,0.03-1.36,0.04
		c-2.22-0.01-4.45-0.01-6.67-0.04c-0.42-0.01-1.04,0.25-1-0.64c0.03-0.71,0.21-1.06,0.99-0.9c0.4,0.08,0.82,0.05,1.23,0.11
		c0.99,0.15,1.83,0.11,1.76-1.24c0-0.04,0-0.11,0.02-0.12c0.92-0.4,1.68-1,2.32-1.77c0.07-0.08,0.45,0.02,0.46-0.03
		c0.32-1,1.19-1.53,1.8-2.26c0.31-0.36,0.38-0.88,0.99-0.89c0.78-0.01,1.05-0.33,1.04-1.14c-0.12-11.77-0.22-23.54-0.32-35.31
		c-0.07-7.78-0.12-15.56-0.19-23.34c-0.05-5.84-0.11-11.69-0.17-17.53c0-0.49,0.09-0.99-0.7-0.98c-6.33,0.02-12.66,0.01-19.16,0.01
		c1.31,4.42,2.52,8.51,3.73,12.6c4.57,15.46,9.15,30.93,13.72,46.39c0.2,0.69,0.21,1.48,1.4,1.09c0.72-0.24,0.4,0.49,0.36,0.81
		c-0.92,6.48-4.1,11.55-9.63,15.07C411.26,518.9,405.43,519.49,399.3,517.87z M454.59,454.02c-0.07-0.01-0.14-0.03-0.21-0.04
		c-0.57,1.96-1.15,3.91-1.71,5.87c-3.81,13.18-7.6,26.35-11.43,39.52c-0.23,0.79-0.16,1.03,0.73,1.14c3.84,0.5,7.68,0.83,11.54,0.98
		c0.89,0.03,1.11-0.2,1.1-1.06c-0.04-3.83-0.02-7.65-0.02-11.48C454.59,477.31,454.59,465.66,454.59,454.02z M403.23,454.25
		c-0.07-0.01-0.14-0.02-0.21-0.03c-0.1,0.29-0.2,0.58-0.29,0.88c-1.54,5.32-3.07,10.65-4.61,15.97c-2.71,9.39-5.42,18.77-8.15,28.15
		c-0.25,0.85-0.2,1.19,0.83,1.31c3.67,0.45,7.35,0.8,11.05,0.96c1.18,0.05,1.41-0.28,1.4-1.39c-0.04-14.89-0.02-29.79-0.02-44.68
		C403.23,455.03,403.23,454.64,403.23,454.25z M407.69,456.57c-0.06,0.01-0.12,0.03-0.18,0.04c-0.01,0.1-0.02,0.2-0.02,0.3
		c0,14.45,0,28.9,0,43.35c0,0.16,0.01,0.33,0,0.49c-0.06,0.61,0.23,0.76,0.81,0.75c3.79-0.1,7.55-0.46,11.31-0.91
		c1.05-0.12,1-0.52,0.76-1.33c-3.7-12.44-7.37-24.89-11.05-37.34C408.79,460.14,408.23,458.36,407.69,456.57z M458.99,456.49
		c-0.07,0.01-0.14,0.01-0.2,0.02c0,14.69,0.01,29.38-0.02,44.07c0,0.8,0.27,0.93,1,0.91c3.54-0.09,7.06-0.44,10.57-0.84
		c1.67-0.19,1.66-0.22,1.16-1.91c-2.78-9.41-5.56-18.82-8.34-28.23C461.77,465.83,460.38,461.16,458.99,456.49z"/>
	<path class="st6" d="M561.62,400.74c-0.36-0.12-0.7-0.18-1.06,0.04c-3.77,2.29-8.01,3.09-12.26,3.8
		c-6.13,1.02-12.32,1.3-18.52,1.18c-2.5-0.05-5-0.25-7.49-0.39c-5.21-0.65-10.43-1.27-15.38-3.21c-3.71-1.46-4.36-2.67-3.24-6.48
		c0.29-0.99,0.2-1.5-0.81-1.94c-1.9-0.82-1.7-2.57-1.48-4.15c0.12-0.88-0.11-1.16-0.87-1.35c-0.51-0.13-1-0.38-1.48-0.6
		c-2.56-1.16-3.05-2.31-2.61-5.08c0.48-3.02,2.11-4.59,5.11-5.2c5.97-1.2,11.97-2.03,18.07-2.19c2.38-0.06,4.76-0.15,7.14-0.23
		c1.76,0.08,3.53,0.19,5.29,0.22c3.54,0.07,7.05,0.43,10.56,0.88c1.64,0.21,1.63,0.27,2.48-1.18c-2.02-0.58-4.02-1.2-5.9-2.14
		c-0.95-0.47-1.52-1.16-1.69-2.25c-0.3-2.02,0.29-3.87,1.16-5.58c0.6-1.2,2.08-1.35,3.26-1.76c0.73-0.26,1.52-0.35,2.27-0.56
		c1.19-0.32,2.48-0.22,3.71-0.81c-0.94-0.59-1.76-1.04-1.96-2.19c-0.37-2.11,0.25-4.03,1.13-5.82c0.59-1.21,2.1-1.3,3.27-1.76
		c0.3-0.12,0.63-0.19,0.95-0.26c4.45-1,8.97-1.58,13.51-2.01c0.49,0,0.99,0.03,1.48-0.02c3.24-0.34,6.49-0.34,9.73-0.32
		c6.33,0.04,12.65,0.4,18.91,1.45c2.39,0.59,4.81,1.08,7.04,2.16c2.07,1,2.18,3.02,2.35,4.91c0.15,1.7-0.64,2.94-2.22,3.74
		c-2.17,1.1-4.48,1.78-6.81,2.36c-0.79,0.2-1.12,0.24-0.5,1.1c0.73,1,1.03,2.24,1.14,3.46c0.17,1.95-0.46,3.54-2.57,4.45
		c1.75,0.54,3.3,0.97,4.81,1.5c2.55,0.89,3.65,2.37,3.69,5.12c0.01,0.88,0.27,1.25,1.1,1.53c3.07,1.02,4.52,3.75,3.71,6.93
		c-0.17,0.68-0.11,1.04,0.52,1.51c2.53,1.88,2.08,6.93-0.7,8.29c-3.73,1.84-7.76,2.6-11.82,3.25c-0.97,0.16-1.94,0.31-2.91,0.46
		c-5.7,0.51-11.4,0.71-17.12,0.5C570.24,401.95,565.91,401.47,561.62,400.74z M599.12,398.2c2.06-0.23,3.99-0.94,5.87-1.76
		c1.85-0.8,2.38-2.36,1.51-4.21c-0.15-0.32-0.29-0.62-0.72-0.38c-2.07,1.19-4.43,1.45-6.67,2.09c-3.36,0.53-6.74,0.78-10.12,1.12
		c-4.2,0.08-8.4,0.17-12.6,0.25c-5.15-0.22-10.3-0.48-15.5-1.34c0.48,1.52,0.98,2.9,0.89,4.4c-0.03,0.44,0.34,0.48,0.68,0.54
		c4.61,0.75,9.24,1.35,13.93,1.24c0.4,0.06,0.81,0.18,1.21,0.18c3.8,0.01,7.6-0.1,11.39-0.5c0.69-0.05,1.39-0.07,2.07-0.17
		C593.77,399.27,596.51,399.06,599.12,398.2z M595.2,361.93c1.89-0.26,3.65-0.93,5.38-1.68c1.83-0.8,2.36-2.57,1.4-4.34
		c-0.17-0.3-0.29-0.44-0.64-0.24c-1.91,1.11-4.1,1.4-6.18,2c-3.44,0.55-6.91,0.88-10.38,1.24c-4.61,0.28-9.22,0.23-13.83,0.25
		c-3.35-0.33-6.73-0.3-10.08-0.75c-4.02-0.55-8.1-0.89-11.8-2.78c-0.26-0.13-0.46-0.31-0.73,0.03c-1.22,1.52-0.67,3.92,1.1,4.67
		c3.2,1.36,6.57,2.11,9.98,2.64c3.82,0.59,7.65,1.03,11.52,1.03c4.62,0.2,9.24,0.17,13.84-0.4
		C588.31,363.36,591.8,362.92,595.2,361.93z M594.68,386.86c-3.44,0.52-6.92,0.64-10.38,0.96c-3.79-0.13-7.58,0.25-11.37,0.28
		c-4.27-0.06-8.53-0.18-12.77-0.74c-0.73-0.1-0.99,0.1-0.74,0.86c0.26,0.78,0.42,1.59,0.37,2.42c-0.03,0.51,0.18,0.76,0.67,0.84
		c4.13,0.66,8.28,1.23,12.47,1.23c3.56,0.28,7.12,0.07,10.68,0c0.24,0,0.47-0.11,0.7-0.17c3.5-0.06,6.95-0.45,10.36-1.22
		c2.87-0.33,5.6-1.18,8.26-2.28c1.91-0.79,2.48-2.4,1.57-4.26c-0.16-0.34-0.31-0.55-0.73-0.34
		C600.93,385.93,597.77,386.26,594.68,386.86z M591.95,379.87c-3.69,0.49-7.39,0.92-11.11,1.13c-4.28,0.24-8.56,0.13-12.84,0.18
		c-4.66-0.31-9.33-0.53-14.07-1.33c0.47,1.25,0.85,2.36,0.89,3.5c0.03,0.81,0.33,1.16,1.08,1.35c3.97,0.99,8.04,1.15,12.1,1.34
		c4.29,0.08,8.57,0.24,12.85-0.25c3.76-0.26,7.49-0.64,11.14-1.63c2.16-0.32,4.21-1.01,6.2-1.91c1.7-0.76,2.3-2.68,1.34-4.25
		c-0.18-0.29-0.37-0.44-0.69-0.26C596.7,378.97,594.26,379.21,591.95,379.87z M546.25,402.86c4.05-0.42,8.01-1.26,11.76-2.9
		c1.87-0.82,2.16-1.61,1.62-3.61c-0.23-0.84-0.43-1.33-1.42-0.69c-0.86,0.55-1.89,0.78-2.88,1.04c-2.98,0.8-6.04,1.12-9.08,1.55
		c-3.87,0.22-7.75,0.45-11.62,0.67c-5.18-0.08-10.36-0.14-15.51-0.73c-4.32-0.49-8.68-0.84-12.66-2.86
		c-0.35-0.18-0.55-0.18-0.78,0.23c-1.11,1.97-0.56,3.84,1.51,4.61c8.87,3.28,18.11,3.76,27.44,3.59c2.18,0.16,4.34-0.13,6.51-0.28
		C542.84,403.37,544.58,403.33,546.25,402.86z M530.44,384.72c-3.87-0.03-7.74-0.05-11.61-0.08c-3.02-0.26-6.06-0.42-9.06-0.82
		c-3.56-0.48-7.18-0.85-10.4-2.71c-0.19-0.11-0.4-0.22-0.51,0.05c-0.44,1.12-0.73,2.27-0.55,3.48c0.12,0.87,0.92,0.97,1.53,1.23
		c6.08,2.52,12.51,3.21,18.99,3.62c3.87,0.25,7.74,0.47,11.61,0.03c4.26-0.03,8.46-0.5,12.62-1.39c2.7-0.36,5.27-1.18,7.8-2.15
		c2.52-0.97,2.24-2.31,1.68-4.21c-0.18-0.61-0.42-0.66-0.95-0.36c-1.12,0.62-2.35,0.93-3.57,1.29c-1.64,0.49-3.39,0.49-4.99,1.13
		C538.83,384.12,534.64,384.42,530.44,384.72z M578.37,369.86c-0.81,0.05-1.63,0.09-2.44,0.16c-4.45,0.35-8.91,0.21-13.37,0.26
		c-4.14-0.27-8.3-0.38-12.41-1.01c-3.24-0.5-6.54-0.86-9.48-2.49c-0.55-0.31-0.68-0.1-0.87,0.37c-1.08,2.69-0.68,3.63,2.04,4.65
		c0.15,0.06,0.3,0.13,0.46,0.18c6.56,2.26,13.37,2.94,20.25,3.19c4.27,0.18,8.54,0.07,12.79-0.27c1-0.08,2.05,0.01,3.02-0.4
		c4.82-0.35,9.51-1.27,13.97-3.19c1.57-0.68,1.82-1.2,1.59-2.9c-0.08-0.61-0.23-1.21-0.61-1.76c-1.18,0.59-2.39,1.08-3.66,1.42
		C585.96,369.09,582.15,369.42,578.37,369.86z M543.04,390.99c-2.29,0.1-4.58,0.21-6.87,0.31c-3.15,0.14-6.29,0.27-9.44,0.41
		c-0.56-0.21-1.14-0.11-1.71-0.11c-6.75-0.01-13.44-0.52-20.04-2.03c-0.51-0.12-1.19-0.65-1.58-0.06c-0.38,0.57-0.26,1.37-0.09,2.04
		c0.16,0.63,0.83,0.75,1.35,0.96c7.08,2.87,14.53,3.59,22.07,3.74c0.63,0.25,1.29,0.17,1.94,0.17c4.81,0.07,9.6-0.2,14.37-0.74
		c0.48-0.07,0.96-0.14,1.44-0.21c3.87-0.55,7.7-1.27,11.31-2.82c2.17-0.93,2.56-1.99,1.74-4.18c-0.2-0.53-0.39-0.72-0.96-0.4
		c-1.71,0.96-3.62,1.3-5.5,1.72C548.42,390.38,545.71,390.56,543.04,390.99z M512.97,333.51c-0.69-0.33-1.16-0.29-1.76,0.19
		c-1.35,1.07-2.83,1.98-4.16,3.08c-5.89,4.84-12.13,9.22-18.12,13.93c-5.89,4.63-11.88,9.12-17.85,13.64
		c-0.58,0.44-0.64,0.78-0.36,1.42c1.02,2.33,2,4.69,2.94,7.05c0.33,0.84,0.61,0.93,1.37,0.37c5.93-4.43,11.9-8.81,17.86-13.22
		c7.38-5.45,14.75-10.9,22.12-16.35c0.5-0.37,0.91-0.7,1.65-0.33c3.35,1.67,6.73,3.26,10.1,4.88c2.6,1.21,5.25,2.34,7.79,3.68
		c1.24,0.66,2.11,0.49,3.23-0.21c8.66-5.42,17.36-10.78,26.04-16.15c0.31-0.19,0.64-0.35,0.97-0.53c4.59-2.87,9.17-5.74,13.76-8.61
		c5.15-3.21,10.3-6.42,15.46-9.62c0.28-0.17,0.59-0.28,0.88-0.42c0.52-0.59,1.42-0.7,2.02-1.6c-1.12,0-2.05,0-2.97,0
		c-3.21,0.01-6.43,0.18-9.63-0.01c-2.73-0.16-4.98,0.6-7.23,2.1c-4.01,2.66-8.18,5.06-12.28,7.57c-3.23,2.03-6.45,4.07-9.69,6.08
		c-6.66,4.14-13.33,8.26-20,12.39c-0.55,0.34-1.04,0.74-1.8,0.36c-3.5-1.72-7.02-3.39-10.53-5.08
		C519.51,336.59,516.23,335.07,512.97,333.51z"/>
	<path class="st6" d="M287.87,324.44c0.98-1.81,2.36-1.68,4.1-1.12c5.85,1.91,11.36,4.34,15.71,8.88c2.78,2.9,4.71,6.3,5.88,10.13
		c0.33,1.08,0.18,2.2,0.19,3.31c0.06,9.87,0.1,19.75,0.14,29.62c-0.11-0.01-0.23-0.02-0.34-0.04c-1.84-3.82-3.6-7.69-5.99-11.22
		c-3.09-4.58-7.01-8.35-11.26-11.82c-0.72-0.59-1.43-1.18-2.26-1.61c-5.03-3.42-10.62-5.47-16.53-6.73
		c-1.64-0.35-3.31-0.57-5.22-0.9c0.73-0.91,1.41-1.75,2.08-2.59c4.19-5.19,8.63-10.18,12.98-15.24
		C287.54,324.91,287.7,324.67,287.87,324.44z M351.06,381.42c8.85-0.11,17.69,0.11,26.54,0.22c3.32,0.04,3.26,0.1,3.35-2.91
		c0.04-1.14-0.35-1.35-1.37-1.36c-6.17-0.02-12.34-0.09-18.52-0.15c-3.33-0.03-6.66-0.09-10-0.13c-2.91-0.01-5.82,0.01-8.72-0.02
		c-4.75-0.04-9.51-0.11-14.26-0.17c-0.9,0-1.81-0.01-2.71,0.01c-0.94,0.01-2.08-0.27-2.76,0.17c-0.62,0.39-0.14,1.61-0.22,2.45
		c-0.29,3.22-2.62,5.56-5.84,5.82c-3.31,0.26-5.9-1.51-6.62-4.64c-0.21-0.91-0.25-1.88-0.22-2.81c0.03-0.9-0.21-1.19-1.16-1.18
		c-5.43,0.02-10.87-0.01-16.3-0.06c-4.44-0.04-8.88-0.14-13.33-0.21c-0.49,0.02-0.98,0.06-1.48,0.05
		c-8.06-0.08-16.13-0.17-24.19-0.24c-2.98-0.03-2.95,0-2.98,3.03c-0.01,0.88,0.17,1.19,1.14,1.2c7.45,0.02,14.89,0.1,22.34,0.18
		c4.69,0.05,9.37,0.13,14.06,0.2c5.59,0.03,11.17,0.07,16.76,0.06c0.82,0,1.1,0.26,1.29,1.04c1.13,4.51,4.91,7.49,9.56,7.62
		c5.08,0.14,9.32-2.6,10.61-7.1c0.37-1.28,0.96-1.5,2.05-1.29C335.74,381.26,343.4,381.34,351.06,381.42z M274.62,368.08
		c-5.38-0.14-10.76-0.28-16.14-0.42c-1.02-0.03-2.31-0.4-3,0.07c-0.76,0.52-0.22,1.91-0.32,2.91c-0.01,0.12,0,0.25-0.03,0.37
		c-0.16,0.65,0.09,0.89,0.75,0.88c0.99-0.02,1.97,0.03,2.96,0.06c6.69,0.18,13.39,0.37,20.08,0.55c4.8,0.09,9.61,0.19,14.41,0.28
		c3,0.06,2.37,0.67,2.58-2.57c0.1-1.61,0.03-1.6-1.59-1.64c-4.23-0.1-8.46-0.22-12.69-0.33
		C279.3,368.19,276.96,368.14,274.62,368.08z M290.77,353.96c-6.55-3.24-13.54-4.94-20.72-6.02c-2.98-0.45-2.93-0.48-3.41,2.45
		c-0.19,1.13,0.14,1.46,1.24,1.58c3.22,0.35,6.42,0.89,9.55,1.77c2.06,0.38,4.05,1.02,6.02,1.73c4.51,1.61,8.82,3.59,12.24,7.12
		c0.63,0.65,0.95,1.95,1.84,1.91c0.88-0.03,1.7-0.89,2.59-1.31c0.81-0.38,0.84-0.73,0.33-1.46c-1.8-2.57-4.25-4.4-6.75-6.2
		C292.72,355.01,291.76,354.45,290.77,353.96z M276.95,359.34c-5.01-0.71-10.01-1.42-15.02-2.14c-0.91-0.13-1.59-0.28-1.58,1.12
		c0,0.7,0.02,1.56-0.31,2.26c-0.3,0.63,0.02,0.69,0.49,0.76c3.66,0.5,7.33,1,10.99,1.52c3.37,0.48,6.74,0.99,10.12,1.49
		c2.11,0.26,4.22,0.52,6.33,0.79c1.01,0.13,2.25,0.69,2.98,0.3c0.87-0.47,0.41-1.93,0.71-2.93c0.24-0.8,0.07-1.13-0.84-1.25
		c-4.47-0.59-8.92-1.26-13.38-1.9C277.27,359.35,277.11,359.36,276.95,359.34z M322.84,333.6c-3.01,3.93-5.05,8.09-4.91,13.3
		c0.23,8.38,0.01,16.77-0.01,25.16c0,1.12-0.22,2.23,0.01,3.64c0.26-0.58,0.4-0.9,0.55-1.23c2.4-5.33,5.2-10.43,9.1-14.84
		c5.24-6.45,11.83-10.97,19.61-13.8c1.27-0.46,2.59-0.8,3.88-1.19c2.67-0.85,5.46-1.18,8.38-1.69c-0.42-0.53-0.71-0.92-1.02-1.29
		c-2.54-3.05-5.09-6.1-7.64-9.15c-2.52-2.92-5.06-5.83-7.56-8.78c-0.67-0.79-1.32-1.01-2.35-0.7c-4.49,1.33-8.84,2.95-12.8,5.51
		C326.32,330.21,324.34,331.65,322.84,333.6z M373.24,371.96c3.53-0.08,3.51-0.03,3.33-3.57c-0.03-0.67-0.25-0.83-0.87-0.81
		c-3.41,0.12-6.81,0.22-10.22,0.3c-4.72,0.12-9.44,0.21-14.16,0.32c-4.35,0.12-8.7,0.27-13.05,0.37c-2.44,0.06-2.44,0.02-2.38,2.46
		c0.04,1.92,0.04,1.87,2.01,1.81c4.39-0.14,8.78-0.21,13.17-0.31C358.45,372.33,365.84,372.12,373.24,371.96z M362.17,352.17
		c0.97-0.15,2.24-0.01,2.81-0.58c0.62-0.62-0.11-1.86-0.09-2.83c0-0.08-0.02-0.16-0.02-0.25c0.04-0.83-0.31-0.97-1.12-0.87
		c-4.28,0.52-8.49,1.41-12.67,2.44c-4.31,1.34-8.56,2.81-12.45,5.15c-2.87,1.73-5.45,3.8-7.39,6.59c-0.41,0.59-0.51,0.94,0.25,1.29
		c0.78,0.36,1.5,0.85,2.23,1.3c0.39,0.24,0.67,0.32,1.01-0.14c4.09-5.48,10.07-7.78,16.31-9.64
		C354.66,353.4,358.41,352.76,362.17,352.17z M369,361.63c2.66-0.36,2.67-0.31,2.35-2.98c-0.2-1.64-0.19-1.61-1.86-1.38
		c-6.14,0.86-12.28,1.7-18.42,2.55c-2.64,0.38-5.29,0.73-7.92,1.14c-1.05,0.16-2.55-0.11-3.01,0.62c-0.44,0.69,0.21,2.02,0.24,3.08
		c0.03,0.92,0.43,0.92,1.17,0.81c3.17-0.47,6.34-0.88,9.51-1.32C357.04,363.31,363.01,362.44,369,361.63z"/>
</g>
<path class="st7" d="M242.82,556.5L242.82,556.5c0,0,2.02,18.18,23.45,27.08C265.59,581.91,251.81,571.14,242.82,556.5
	 M688.93,251.21L688.93,251.21c-0.98-1.96-0.42-5.22,1.34-6.47L688.93,251.21z M658.33,247.16L658.33,247.16
	c-0.15,0.87-0.41-1.43-0.41-1.43l-7.89-4.09l-4.33-8.14c4.07,0.71,6.58,4.07,9.02,6.51c1.6-0.39,2.15-0.97,2.77-1.97l-0.43-1.42
	c-0.22-2.49,1.08-4.96,3.1-5.05L658.33,247.16z M643.65,249.25L643.65,249.25l-0.57-0.53c1.03-0.94,1.27-2.26,2.58-2.24
	c2.51-0.44,5.07,0,7.01,1.47L643.65,249.25z M685.72,258.28L685.72,258.28c-1.54-2.54-4.88-6.24-3.14-8.64l1.74,5.25
	c-0.06,1.55,1.04,2.87,2.1,3.07l2.12-2.1l7.27-1.19L685.72,258.28z M671.64,260.7L671.64,260.7l-0.44-0.08l0.29-1.73
	c-1.27-2.7-2.18-6.44-0.27-8.57L671.64,260.7z M680.48,282.21L680.48,282.21c-7.92-2.76-16.5-7.85-19.93-16.07
	c7.85,4.31,16.89,6.8,19.33,14.4L680.48,282.21z M692.91,291.81L692.91,291.81l-0.56,0.58l0.66-12.66l1.5,0.26L692.91,291.81z
	 M175.97,247.5L175.97,247.5l-1.05-6.53C176.64,242.29,177.06,245.59,175.97,247.5z M206.75,244.87L206.75,244.87l-1.13-15.66
	c1.99,0.2,3.18,2.71,2.85,5.2l-0.48,1.4c0.56,1.04,1.07,1.64,2.67,2.09c2.54-2.31,5.2-5.56,9.31-6.09l-4.69,7.94l-8.09,3.72
	C207.2,243.47,206.84,245.75,206.75,244.87z M221.32,247.66L221.32,247.66l-8.99-1.74c2.01-1.38,4.6-1.7,7.08-1.14
	c1.33,0.05,1.48,1.36,2.48,2.35L221.32,247.66z M178.85,254.7L178.85,254.7l-9.92-4.08l7.21,1.55l2.03,2.16
	c1.06-0.12,2.22-1.38,2.23-2.95l1.97-5.15C184.01,248.69,180.53,252.27,178.85,254.7z M192.82,257.78L192.82,257.78l0.88-10.34
	c1.81,2.2,0.74,5.91-0.66,8.54l0.22,1.74L192.82,257.78z M183.01,278.86L183.01,278.86c0.38-0.49,0.54-0.95,0.66-1.65
	c2.78-7.47,11.94-9.55,19.98-13.48C199.84,271.78,191.03,276.47,183.01,278.86z M170.15,287.84L170.15,287.84l-1.07-11.87l1.51-0.2
	l0.07,12.68L170.15,287.84z M150.65,287.12L150.65,287.12l-4.06-3.67l0.91-7.1c1.8-0.68,2.26-2.98,3.84-2.98
	C152.9,278.17,152.9,282.99,150.65,287.12z M139.15,290.09L139.15,290.09l-0.67,0.24c-4.95-1.84-7.43-5.96-8.56-10.78l10.81,4.82
	l1.14,3.42C140.06,288.49,139.61,289.39,139.15,290.09z M709.56,306.18L709.56,306.18l-0.22,0.04c-0.61-2.91-2.26-5.37-3.23-8.91
	c-0.52-3.63-1.95-10.58,0.45-13.43l4.92,11.6c-1.18,0.95-2.73,0.11-3.61,1.46L709.56,306.18z M720.27,306.74L720.27,306.74
	c0.14,0.66-1.68-0.36-1.6-1.07c0.46-2.21,3.7-4.29,2.77-6.67l-0.77-1.48c-0.71-0.08-1.24-0.44-1.68-0.35
	c-1.24,0.74-1.1,1.41-2.07,1.14l1.42-4.27l9.32-5.03c-0.15,7.07-6.09,10.66-7.66,16.37L720.27,306.74z M676.13,299.24L676.13,299.24
	c-5.64-4.12-12.84-8.7-16.68-15.8c0-1.38-0.89-2.75-1.57-2.98c-0.92,0-1.13,0-1.81-0.22l-1.81-3.22c9.7,4.82,17.58,11,24.12,20.39
	L676.13,299.24z M175.46,300.17L175.46,300.17c-0.7,2.3-0.45,0-0.7,0l4.07-7.56c8.79-8.68,18.49-15.33,29.53-20.15
	C199.8,286.42,185.38,288.73,175.46,300.17z M132.84,304.76L132.84,304.76l-0.45,0.25c-0.89-0.72-1.34-0.72-1.34-1.62
	c2.03-1.83,2.92-5.06,5.62-5.96c0.91,0.23,1.14,0.23,1.14,0.46c0.22,2.28,2.92,3.2,1.34,4.81L132.84,304.76z M693.26,308.2
	L693.26,308.2l-1.59-4.06L693.26,308.2z M728.62,318.08L728.62,318.08l-0.97-0.26c-2.45-0.65-6.6-2.82-6.08-4.81l3.86,0.82
	l1.17-0.95c0.09-0.71-0.05-1.4-0.1-1.61c-0.49-1.31-1.38-1.11-1.35-2.06c2.4-0.74,5.06-0.14,6.87,0.9l4.76,4.14L728.62,318.08z
	 M202.72,310.93L202.72,310.93c-1.57,0-2.93-1.82-3.82-2.73c-0.91-5.51,3.82-8.26,6.76-10.54c1.13,0,1.36,0.67,1.58,1.37
	L202.72,310.93z M681.99,315.07L681.99,315.07c-1.12-0.48-3.15-0.48-3.15-1.62c1.11-0.22,0.45-1.83,1.34-1.83L681.99,315.07z
	 M662.38,315.07L662.38,315.07h-0.45c-1.81-1.16-3.38-3.45-4.97-5.29c0-3.88-3.37-8.01-1.12-10.54
	C660.12,302,662.6,309.78,662.38,315.07z M670.72,315.07L670.72,315.07c-0.91,1.36-2.02-0.24-2.02-0.92v-2.08l8.33-6.4
	L670.72,315.07z M129.5,375.74L129.5,375.74l-0.67,0.23l-4.96-5.27l-0.46-5.49c3.39-0.71,6.32,1.61,7.9,4.8
	C132.45,372.53,130.39,374.37,129.5,375.74z M119.51,384.21L119.51,384.21c-1.13-0.22-2.72-0.92-3.39-2.27
	c0.22-0.93,0.9-1.15,1.13-1.83l10.15-1.14c0.9-0.46,2.23-1.61,2.23,0C127.4,381.94,123.56,384.21,119.51,384.21z M129.5,397.28
	L129.5,397.28h-0.67c-0.68-4.81,0.22-8.95,2.7-12.14c1.36-0.92,0.45,0,1.36,0c1.13,3.89,1.57,8.93-1.36,11.45
	C130.63,397.06,129.94,397.06,129.5,397.28z M191.47,315.52L191.47,315.52l-0.68,0.22l-4.96-5.27l-0.45-5.47
	c3.38-0.72,6.3,1.58,7.89,4.78C194.38,312.31,192.36,314.15,191.47,315.52z M692.8,320.56L692.8,320.56l-1.12-0.23
	c-0.91-3.67-3.37-5.27-5.64-8.26c-2.47-3.2-5.18-7.07-3.38-10.51c4.96,5.02,8.8,10.75,11.26,18.78L692.8,320.56z M198.22,320.33
	L198.22,320.33l-0.66,0.23c-0.92-0.69-1.13-1.38-1.59-2.29c1.59-0.45,1.59-2.05,2.94-3.2c1.12,0.46,1.12,1.36,1.56,2.28
	C200.02,318.95,198.9,319.63,198.22,320.33z M159.45,319.63L159.45,319.63l-0.23,0.7l-15.99-14.43c0.44-0.23,1.11-0.68,2.69-2.28
	c1.36-0.48,3.84-1.84,4.73-0.23L159.45,319.63z M207.91,321.24L207.91,321.24c-1.58-0.45-2.7-0.91-2.7-2.29
	c0-0.91,0.22-1.13,0.45-1.6l11.03-0.92L207.91,321.24z M664.86,321.93L664.86,321.93c-0.91,0.22-0.91-0.44-0.91-0.69
	c0.22-0.91,0.91-1.61,1.58-1.61c0.89,0.23,1.81,1.16,1.11,2.3H664.86z M647.95,321.93L647.95,321.93c-2.94-1.14-5.41-1.6-6.54-3.66
	l13.54-3.2c1.8,0.68,3.37,2.28,3.61,3.88c-0.23,0.92-0.23,1.84-1.59,2.29L647.95,321.93z M683.57,326.05L683.57,326.05l-7.45-1.37
	l-2.93-4.12c0.46,0,2.26-1.61,3.83-1.61c4.52,0,9.02,1.84,11.74,5.51L683.57,326.05z M181.32,327.2L181.32,327.2
	c-1.14-0.22-2.7-0.92-3.39-2.28c0.24-0.92,0.91-1.15,1.14-1.84l10.12-1.14c0.91-0.44,2.28-1.6,2.28,0
	C189.19,324.91,185.38,327.2,181.32,327.2z M207.91,335.21L207.91,335.21l-7.45-7.08l-0.67-3.21l2.25-0.45
	c0.91,0.22,1.82,1.13,3.39,1.81c2.48,1.39,4.05,5.51,3.15,8.72L207.91,335.21z M177.03,335.21L177.03,335.21l-0.9,0.23
	c-2.26-1.84-3.16-5.04-5.19-6.86h-1.59l-1.57,1.14c-1.58,0.92-0.22,4.11-2.02,3.88c1.58-10.53,2.47-19.69,10.57-27.03
	c0.92-0.91,2.73-4.12,3.84-1.58l2.7,11.65c-5.63,1.38-9.92,5.5-12.85,8.94l9.47,7.1C179.07,334.31,177.49,334.99,177.03,335.21z
	 M653.36,337.05L653.36,337.05c-1.13,0.45,0.45-1.61,0.22-2.74c2.26-3.21,2.48-8.26,6.54-8.71l1.58,0.68
	c0.67,0.92,0.22,0.24,0.67,0.92l-0.45,1.61C660.57,332.24,657.87,336.36,653.36,337.05z M191.47,337.05L191.47,337.05h-0.68
	c-0.69-4.81,0.21-8.92,2.7-12.14c1.36-0.92,0.45,0,1.36,0c1.12,3.89,1.58,8.92-1.36,11.45
	C192.58,336.83,191.91,336.83,191.47,337.05z M674.53,337.98L674.53,337.98l-0.21,0.67l-5.19-2.73l-2.49-7.11
	c0.7-0.22,0.92-0.91,0.92-1.61l3.16-1.15L674.53,337.98z M180.18,341.18L180.18,341.18c-1.11,0.44-1.11-0.47-1.11-0.47
	c1.11-2.06,2.25-3.21,3.15-4.36c1.34-0.22,1.58-1.15,2.94-1.15l0.67,5.04L180.18,341.18z M158.77,341.18L158.77,341.18l-0.23,0.68
	l-8.78-24.05c0.22,0,1.58,1.37,2.7,2.05C157.19,324.91,160.34,333.84,158.77,341.18z M169.82,345.07L169.82,345.07l-0.47,0.69
	c-0.44-0.92-0.44-1.61-0.89-2.97c0.68-1.6,0.89-5.73,2.47-4.8C170.72,340.72,171.4,343.23,169.82,345.07z M693.93,347.82
	L693.93,347.82c-0.67-0.46-1.58-4.13-0.67-5.04C693.93,344.15,694.61,346.43,693.93,347.82z M174.76,348.96L174.76,348.96
	c-1.8,0.22,0-1.61,0-1.61c0.92-0.68,2.49-1.6,3.86-1.38c0.21,0.7,0,1.38,0,1.38L174.76,348.96z M164.4,355.15L164.4,355.15
	c-0.22-0.93-0.67-3,0-3.66C165.09,352.63,164.4,354,164.4,355.15z M714.9,356.29L714.9,356.29l-0.91,0.23l18.71-25.42
	c-2.71,10.76-6.75,18.78-13.98,25.42L714.9,356.29z M692.8,355.83L692.8,355.83v0.7l-6.07-6.65c0.45-0.92-0.24-1.6,0.45-2.28
	l1.81,0.68L692.8,355.83z M709.94,370.49L709.94,370.49l-0.22,0.7c0.22-4.12,1.12-9.16,4.05-11.45l-0.46,6.41
	c-0.67,0.92-0.89,1.14-1.56,1.14L709.94,370.49z M156.29,372.1L156.29,372.1v0.68l-9.7-19.24c-0.67-0.46-0.89-0.92-2.25-1.39
	c-7.67-10.29-14.66-20.14-16.91-32.29C137.58,337.75,152.45,349.88,156.29,372.1z M703.41,374.39L703.41,374.39l-0.46,0.69
	c-6.53-14.43-0.22-33.21-10.82-42.83c-0.89,0.45-2.25,1.59-2.25,2.97l-0.22,3.91l-1.35,0.22c-0.91-3.19-7.21-5.73-5.2-8.93
	l9.69-1.82c2.71,3.42,5.2,7.77,6.55,13.28c3.15,5.03,2.7,10.29,3.15,16.26C701.14,363.62,704.31,369.36,703.41,374.39z
	 M142.54,374.39L142.54,374.39c-0.23,0.92-1.81,0-1.81-0.46c-1.58-3.44-1.36-7.78,1.59-10.99c0.45-0.91,2.49-3.2,2.7-0.91
	L142.54,374.39z M721.88,376.45L721.88,376.45h-1.35c-1.56-3.66-4.06-9.38-1.81-13.29c1.58,0.92,2.49,1.84,3.16,2.98l2.48,9.16
	L721.88,376.45z M712.42,376.45L712.42,376.45h-0.22c0.9-1.38,0.9-3.66,2.47-3.66c0,1.14,1.14,3.2,0.23,3.66H712.42z M734.73,377.14
	L734.73,377.14l-0.67,0.47c-1.8-1.15-1.8-3.21-3.16-3.67c-0.67-1.82,0.68-3.44,0.91-5.04c2.47-0.69,5.64-6.41,8.12-4.36l-2.03,9.86
	L734.73,377.14z M164.4,380.81L164.4,380.81c-1.58-8.93,1.36-19.93,6.53-26.59c6.56,0.93,12.62-4.11,15.11-8.92
	c0.89-0.23,1.58-0.23,2.25-0.23l8.79-4.35c-2.7,7.57-10.81,13.28-16.45,19.93C174.76,366.37,169.14,373.71,164.4,380.81z
	 M134.41,383.55L134.41,383.55h-0.89l-0.69-2.74l3.16-2.76l1.13,1.15c0.67,1.17,0.44,2.76-0.46,3.67
	C136.22,383.55,135.33,383.55,134.41,383.55z M727.75,385.16L727.75,385.16c-1.58-0.23-2.7-0.92-3.16-2.29
	c0.68-1.84,1.36-2.74,2.49-3.43h1.34l1.58,5.03L727.75,385.16z M145.92,386.07L145.92,386.07c-1.58-0.23-2.69-1.14-3.15-2.52
	c0.46-1.36-0.45-2.74,0.68-3.9l9.02-1.83c1.35,0.22,1.35,0.92,2.49,0.92c0.66,0.91,2.02,2.06,1.34,3.21L145.92,386.07z
	 M717.15,386.77L717.15,386.77c-0.89,0-2.25-0.93-3.84-0.93c-1.11-0.91-3.37-1.6-3.14-3.65c0.67-0.24,1.35-0.24,2.25-0.47
	c3.16-0.91,5.64,0.92,6.99,2.75l-0.69,2.07L717.15,386.77z M739.02,387.45L739.02,387.45l-3.83-1.37c0.45-1.61-0.23-4.12,1.12-5.26
	c0.24,0,1.13-0.45,2.03-0.68c4.05,0.68,8.57,0.23,10.82,3.43L739.02,387.45z M163.73,395.93L163.73,395.93
	c2.03-14.9,15.1-27.04,24.78-36.65C180.18,371.88,169.82,382.19,163.73,395.93z M144.34,402.11L144.34,402.11h-0.67
	c-2.7-2.29-4.06-3.9-5.19-6.86c0-2.54-0.9-5.28,1.13-6.66c2.26,0.92,3.83,2.06,4.73,3.67l0.67,9.85H144.34z M698.91,402.11
	L698.91,402.11l-21.2-35.96C688.76,376.45,697.09,386.07,698.91,402.11z M738.11,403.72L738.11,403.72l-0.66,0.45
	c-0.9-0.45-1.59-0.45-2.26-0.45c-1.35,0-1.81-1.61-3.38-2.98c-2.26-2.52-2.48-7.56-0.91-10.54c1.58,0,3.38,0.91,4.74,2.06
	L738.11,403.72z M720.31,403.94L720.31,403.94l-1.33,0.23c-1.59-4.12-1.59-8.91,0.44-11.9c1.8-0.71,2.47-2.29,3.6-3.67
	c1.35,0.92,2.49,2.06,2.49,3.67l-1.14,9.85l-1.35,1.16L720.31,403.94z M157.19,404.63L157.19,404.63l-0.22,0.23l-7.22-13.31
	l8.78-3.19L157.19,404.63z M204.76,406.47L204.76,406.47l-1.13-2.75l-1.59-0.7c-1.35,0.25-1.35,0.92-2.25,0.7
	c-1.13-7.79,3.83-14.44,8.79-18.34C211.07,392.26,207.91,400.98,204.76,406.47z M705.66,407.38L705.66,407.38h-0.66l3.61-17.86
	c2.02,1.59,5.17,0.68,6.07,2.75l-1.36,4.58L705.66,407.38z M664.61,417.58L664.61,417.58l-0.38,0.58l-0.94-0.95
	c-2.42-4.72-3.72-11.34-2.6-15.49c0.18,0.38,1.48,0.38,2.23,1.5c4.09,3.59,6.69,9.46,6.31,14.75c-1.29-0.76-1.84-1.88-2.97-1.72
	c-0.74,0.41-0.93,0.6-1.29,0.96L664.61,417.58z M188.3,408.3L188.3,408.3l-0.45,0.68l-2.47-18.33l1.34-0.45l1.58,1.36
	c3.61,3.7,5.86,10.79,4.97,15.82c-0.91-1.14,0-2.74-1.36-3.66l-1.12-0.7c-0.91,0.25-1.35,0.7-1.6,0.7
	C188.3,404.87,187.85,407.16,188.3,408.3z M214.22,419.29L214.22,419.29l-3.15-1.15c-1.13-1.13,0.66-2.52,0.22-3.66
	c0-2.07-4.05-2.99-3.38-4.12l13.53,2.52C220.09,416.09,217.38,418.6,214.22,419.29z M199.58,413.53L199.58,413.53l-2.24,0.57
	c-1.69-2.28-3.93-2.28-3.93-3.99h6.17C200.73,410.68,199.58,412.42,199.58,413.53z M675.58,429.31L675.58,429.31
	c-0.74,0.95-0.94-0.56-0.94-0.94c0.56-0.18,0.74-1.33,1.49-1.33c0.55,1.33,1.11,1.9,2.05,2.27H675.58z M183.79,422.74L183.79,422.74
	l-0.66,0.22c-1.37-1.59-4.51-1.14-4.51-3.19l8.32-0.47L183.79,422.74z M658.83,431.57L658.83,431.57h-0.56l-2.06-1.12l-5.22-5.48
	l9.7-0.19c0.18,0.74,0.18,1.32,0,1.89c0.55,2.82,4.09,2.27,4.83,4.34L658.83,431.57z M730,424.33L730,424.33
	c-1.34-0.46-2.92-0.68-2.92-2.06l13.29-5.26c-0.67,0.92-2.03,1.83-2.93,3.9C735.64,422.26,733.17,424.8,730,424.33z M683.11,424.33
	L683.11,424.33c-1.34-0.68-2.24-2.06-2.24-2.97l7.44-0.24L683.11,424.33z M704.99,425.03L704.99,425.03l-0.68-0.22
	c0.22-8.5,4.05-14.44,9.68-19.72l-0.22,3.22c0.44,1.37,1.8,2.28,3.38,2.28l9.93-4.34l1.34-1.37l9.48,5.72c0,0.7-0.45,1.38-0.45,1.61
	c-3.38,1.82-6.31,4.36-11.27,5.95C721.21,423.65,712.2,421.36,704.99,425.03z M677.43,434.61L677.43,434.61h-0.75
	c-0.36-0.77-0.55-1.13-0.36-1.7c1.86-0.38,3.72,0.57,4.64,0.94C680.24,434.79,678.56,434.61,677.43,434.61z M211.07,434.19
	L211.07,434.19c-4.74-0.92-9.48-1.16-12.86-5.97c-0.9-1.82-2.49-4.57-0.9-6.18l6.97,5.27c0.92,0,1.14-0.46,1.37-0.7l1.13-2.28
	l6.54,9.86H211.07z M659.95,442.74L659.95,442.74l-0.37,0.18c0,0-0.19-0.56-0.19-1.32c0.75-2.27,1.49-4.35,3.54-4.92l2.04,1.53
	l3.35-0.96c-0.37,1.7-2.42,3.78-4.09,4.72L659.95,442.74z M191.91,438.08L191.91,438.08h-0.44l2.69-7.34l4.06,4.36
	C195.96,436.25,194.84,438.31,191.91,438.08z M674.08,444.81L674.08,444.81l-0.55,0.58c-1.49-0.94-2.79-1.15-3.35-2.46
	c0.56-2.07,1.5-3.59,2.61-4.91L674.08,444.81z M190.79,447.69L190.79,447.69c-0.91,0-0.91-0.68-0.91-1.14
	c0.44-1.14,0.91-2.06,1.59-2.76c0.89-0.23,2.02-1.35,2.69-0.23C193.27,445.41,192.36,447.01,190.79,447.69z M184.24,450.21
	L184.24,450.21v0.23c-1.59-3.89-4.06-8.24-2.03-11.22c0.92,0.45,2.26,1.59,2.26,2.98L184.24,450.21z M182.88,459.16L182.88,459.16
	c0-1.38-0.9-1.61-1.12-2.29c0.45-0.7,0.89-0.7,1.12,0V459.16z M177.49,461.21L177.49,461.21v0.71c-4.06-6.42-7.67-11.47-12.18-17.42
	c-8.12-8.25-17.15-18.56-29.09-18.56l2.93-2.29c4.08-1.38,8.13,0,12.19,1.59c3.37,2.07,7.43,3.67,10.37,6.2
	C168.91,439.67,173.87,450.44,177.49,461.21z M693.93,464.42L693.93,464.42h-0.22c2.48-5.96,4.29-12.59,8.79-16.73L693.93,464.42z
	 M174.76,467.86L174.76,467.86v0.45l-13.06-20.16L174.76,467.86z M695.75,471.53L695.75,471.53l-0.46,0.23
	c4.27-9.16,9.24-17.19,13.31-27.27c2.92-4.13,5.17-8.25,10.81-8.25C715.35,449.53,705.89,461.21,695.75,471.53z M190.79,472.21
	L190.79,472.21l-0.69,0.47l-1.8-15.13c0.89-1.6,2.49-2.06,3.17-3.89c6.52-3.45,8.55-10.77,10.57-16.96l11.29,3.89l0.22,1.61
	C209.27,455.49,195.51,460.07,190.79,472.21z M152.45,477.24L152.45,477.24l-0.23,0.24l-4.06-2.31c-0.67-0.91-1.35-1.59-1.35-2.73
	l7.67,1.82L152.45,477.24z M704.31,482.51L704.31,482.51h-0.67c1.36-1.6,2.25-3.2,3.83-5.72c3.15-2.06,8.35-6.87,12.4-4.58
	l-4.96,9.17c-0.68-1.6-1.13-2.06-2.48-2.3L704.31,482.51z M680.41,482.97L680.41,482.97c1.58-13.97,9.25-33.45,17.36-45.58
	c6.54-8.48,16.9-12.15,28.4-9.85c6.09,2.52,9.02,8.71,10.14,15.35c-1.12-2.98-2.25-6.41-5.41-8.95c-6.3-3.87-13.97-3.19-21.18,0.26
	C692.35,443.57,689.88,466.71,680.41,482.97z M193.27,486.63L193.27,486.63c-1.8-14.19,9.92-24.03,19.16-32.28
	C210.84,469,194.38,473.13,193.27,486.63z M670.27,487.78L670.27,487.78v0.23l-16.68-31.61
	C661.02,465.79,670.27,474.27,670.27,487.78z M144.34,496.96L144.34,496.96l-7.44-2.53c3.16-4.12,7.44-8.25,13.75-8.25l-0.22,1.6
	c0.46,1.15,0.91,1.84,2.03,2.05l3.15-1.58l-8.33,8.71H144.34z M717.15,499.71L717.15,499.71c-2.25-0.47-3.84-2.07-4.95-3.67
	c0.22-0.92,1.58,0,1.8,0c1.58-0.46,2.26-1.61,2.48-2.3v-1.59l-7.44-4.36h10.37c4.95,2.53,7.67,6.65,8.34,11.46L717.15,499.71z
	 M643,499.71L643,499.71l-0.9-0.47c-3.61-3.9-3.83-11.91-2.25-16.05c3.38,3.23,6.74,6.43,7.22,12.15c-1.37,0.23-2.95-0.23-3.39,0.69
	l-1.14,1.6C642.53,498.56,643,499.24,643,499.71z M207.91,500.84L207.91,500.84v0.23c-4.05-4.11-4.96-11.69-4.05-17.41l4.96,10.08
	L207.91,500.84z M656.96,501.3L656.96,501.3c0.46,2.3-0.89-2.74-1.12-0.92c-1.35-0.23-2.48,0.46-2.93-0.68
	c0.46-4.13,2.26-11.01,4.97-11.93L656.96,501.3z M157.19,504.27L157.19,504.27l-0.68,0.25c-1.57-1.83-2.47-5.96-0.23-7.34
	c1.58,0.7,2.93,1.61,4.05,0.46l2.93-7.11l0.91,3.21C161.92,497.87,161.02,502.68,157.19,504.27z M709.72,510.01L709.72,510.01
	l-1.12,0.67c-2.5-1.59-4.52-3.2-4.96-5.72c0.89-1.36,2.94-1.36,2.94-2.73c0.44-1.16-0.68-4.13,0.44-3.66L709.72,510.01z
	 M638.26,510.68L638.26,510.68L627,505.41c0.67-0.22,1.12-0.9,2.25-1.15c3.61-2.04,7.66-2.04,10.82,0.25l-1.81,2.28
	c0.68,2.29,2.26,3.22,4.05,3.88H638.26z M211.74,510.68L211.74,510.68h-0.44l-2.02-6.87l2.47-0.22c2.48-8.94,1.14-20.41,11.26-23.82
	c3.4,8.92-1.56,17.86-6.52,23.82l0.21,1.6l1.37,1.37h1.58l2.7-2.96c4.5-2.3,9.47-1.61,13.75,0v1.6l-9.01,4.82
	C221.67,507.72,216.02,507.72,211.74,510.68z M670.72,513.44L670.72,513.44h-0.46l7.44-17.41l7.43-10.31l8.57,2.97
	c-0.45,4.82-3.83,8.47-6.31,12.6C682.67,506.56,677.03,511.15,670.72,513.44z M206.79,514.35L206.79,514.35l-0.46,0.7
	c-0.67-0.92-0.9-1.39-1.81-2.31c-4.73-6.17-9.47-15.1-6.31-23.81L206.79,514.35z M657.87,522.14L657.87,522.14
	c-0.92,0.22-0.92-0.45-0.92-0.68c0.69-0.92,0.69-1.6,0.92-2.28l-2.03-3.22c6.54-8.24,7.23-20.38,7.67-29.78
	c6.76,10.3,3.83,21.54,0.45,32.08L657.87,522.14z M657.87,533.83L657.87,533.83l-0.92-0.22v-5.29l26.62-16.7
	c-2.71,5.03-6.76,8.25-11.28,11.67c-0.9,0-1.57,0.7-2.03,0.7C667.34,528.77,662.6,532,657.87,533.83z M243.3,541.17L243.3,541.17
	v0.21l-2.48-6.87c0.9-2.97,3.38-5.51,5.4-7.09c1.58-0.26,2.48-2.53,3.61-1.14C250.29,532.46,247.37,537.73,243.3,541.17z
	 M237.67,542.3L237.67,542.3c-0.91,0.7-2.69-0.45-3.84-0.45l-4.5-8.7l6.76,3.89L237.67,542.3z M624.5,545.28L624.5,545.28h-0.46
	l2.95-8.93l5.62-1.83C630.82,538.88,628.56,543.45,624.5,545.28z M618.18,548.03L618.18,548.03l-0.21,0.45
	c-1.59-0.67-2.26-2.28-3.15-3.88c-1.59-4.13-2.26-10.08,0.22-13.97l2.47,1.6l3.16,6.41l-1.81,9.17L618.18,548.03z M218.06,558.58
	L218.06,558.58L195.06,543l-1.13,0.9c1.58,5.51,8.79,8.03,11.5,12.84c-6.77-0.92-11.28-6.42-16.68-11.45
	c-7.44-8.01-18.93-17.41-32.46-14.65l11.27-4.34c0.68-1.17,0-1.62,0.68-2.3C188.75,528.77,200.7,549.41,218.06,558.58z
	 M210.39,559.94L210.39,559.94c-0.9,0-1.57-0.68-1.57-0.9L210.39,559.94z M167.78,561.55L167.78,561.55
	c-5.63-2.52-12.17-4.81-12.83-11.24l13.51,11.24H167.78z M625.42,561.55L625.42,561.55l-0.92,0.68
	c6.32-11.45,16.45-24.05,28.17-30.01l-0.89,5.5C642.53,543.45,633.53,553.3,625.42,561.55z M693.71,564.98L693.71,564.98l-0.67,0.23
	c1.57-9.85,12.18-10.99,18.48-16.49c0.23,5.5-3.83,9.38-6.52,12.35L693.71,564.98z M286.14,564.98L286.14,564.98l-0.9,0.23
	l-2.7-1.14c-2.04-5.5-1.37-12.38,0.68-16.96c0.44,0.69,1.11,0.92,2.02,2.3c2.25,4.34,4.5,10.07,2.25,14.89L286.14,564.98z
	 M615.94,568.41L615.94,568.41l-0.45,0.71c2.03-5.74,4.52-10.54,6.09-16.72c0.67-1.61,4.05-2.98,5.42-2.3L615.94,568.41z
	 M624.5,569.56L624.5,569.56l-0.68,0.23c3.39-4.81,9.7-9.61,12.85-14.42c4.97-4.36,9.68-9.87,15.32-11.47
	C647.95,558.1,634.42,562.69,624.5,569.56z M579.42,569.56L579.42,569.56l-0.67,0.23l-4.07-1.82c-0.68-1.39,0-2.75-0.68-3.89
	c0-5.5,1.58-11.24,5.42-13.76C582.78,556.04,583.04,564.3,579.42,569.56z M295.38,571.63L295.38,571.63l-0.67-0.24
	c0.67-3.2-2.26-4.12-1.81-6.64c0.45-0.68,0.89-1.6,2.48-2.98c3.16-2.28,9.23-4.12,12.84-2.51
	C305.29,565.22,301,569.56,295.38,571.63z M568.38,573.23L568.38,573.23c-4.97,0-9.93,0-12.41-3.67l-1.14-8.48
	c3.61,0.47,7,1.62,10.37,3c3.17,0.91,4.73,4.12,4.73,6.63C569.27,572.09,569.06,572.31,568.38,573.23z M278.47,573.69L278.47,573.69
	c-2.47-0.46-5.18-1.16-8.12-2.3c-2.71-1.83-5.17-5.72-4.5-8.24h9c2.95,1.6,4.51,4.12,5.2,6.88L278.47,573.69z M206.33,574.6
	L206.33,574.6l-0.22,0.23c-0.45-1.14-0.45-1.6,0.22-3.2c0.91-4.36-3.61-7.33-3.61-9.86l30.43,18l-16.73-7.92L206.33,574.6z
	 M585.05,576.2L585.05,576.2h-0.45l-1.81-2.28c0.7-1.4,0.7-3.23,2.26-4.37c4.29-3.21,11.28-4.57,16.01-3.21c0,0-0.67,0.47-1.12,1.62
	C595.65,572.31,591.6,577.36,585.05,576.2z M286.14,577.12L286.14,577.12c-1.58,0-1.81-1.62-2.03-2.29c0.22-1.6,0-3.2,0.45-4.13
	c1.35-0.67,3.16-0.91,4.5-0.22l0.92,2.76l-1.59,2.97L286.14,577.12z M618.41,578.26L618.41,578.26c7.22-2.51,16.46-9.38,24.13-15.57
	c20.53-13.51,33.59-31.14,59.52-35.26c2.94,0.44,7.67,0.67,8.12,4.12l-0.45,1.59c-6.99-0.68-14.21,1.37-19.84,4.58
	C665.53,550.32,647.73,570.95,618.41,578.26z M575.36,581.01L575.36,581.01l-1.35-0.44c-1.58-0.92-2.25-3.45-1.58-5.06
	c0.91-0.91,2.93-1.82,4.5-1.36l1.14,3.66C577.85,579.4,576.47,580.57,575.36,581.01z M300.11,581.48L300.11,581.48l-5.41-3.22
	c-0.69-0.9,0-2.06,0.67-2.76l10.59,0.25c1.8,0.68,4.05,2.05,3.38,4.12L300.11,581.48z M666.65,584.46L666.65,584.46
	c-1.11,0-2-0.68-3.14-0.68c0,0-0.22-0.71-0.91-1.62c-1.12-5.03,0.91-10.76,5.42-13.96L666.65,584.46z M556.87,586.27L556.87,586.27
	c-2.25-0.89-4.74-0.89-5.62-3.2c0.67-0.22,1.78-1.83,3.37-3.42c3.83-2.28,9.46-2.28,13.07-0.91c1.13,2.28-0.22,4.81-1.58,5.27
	L556.87,586.27z M184.47,587.9L184.47,587.9l-4.29-2.52l-3.84-4.37l9.04-2.28c2.03,0.67,2.92,2.5,5.41,3.42
	c1.57,0.7,3.6-0.22,4.94-1.14l0.23-1.61c-1.81-4.57-2.7-11.44,0-15.56l4.73,4.56c0.67,3.91,0.67,8.95-1.79,11.93l-3.84,2.06
	c-1.58,1.38-0.91,5.26-3.16,5.5H184.47z M208.82,588.58L208.82,588.58l-0.91-0.47c0.67-2.73-1.12-4.11-1.58-6.63
	c3.15-3.67,8.11-5.27,13.31-5.04v2.3C217.6,584,213.33,586.74,208.82,588.58z M200.47,590.87L200.47,590.87h-0.67
	c-1.13-1.38-1.13-3.89,0-5.27c1.57,0,2.25,1.14,2.93,2.3c-0.45,1.36-1.35,1.6-1.35,2.28L200.47,590.87z M653.36,592.02
	L653.36,592.02l-6.77-3.44l-2.69-8.24l11.27,3.66l0.67,1.38L653.36,592.02z M270.35,592.02L270.35,592.02h-1.12
	c-0.9-5.04,3.6-9.17,6.31-12.15l3.82-0.92c1.13,0.92,2.71,2.06,3.17,3.45C279.36,587.21,275.32,590.87,270.35,592.02z
	 M673.88,593.39L673.88,593.39l-3.16-1.6l1.57-4.81c0.91-0.71,1.59-0.92,3.16-1.6c5.41-2.53,11.94-1.38,15.78,1.6
	c-0.46,1.13-1.13,1.13-1.35,1.82C685.14,592.02,679.51,593.85,673.88,593.39z M630.82,593.39L630.82,593.39l-1.13-0.45l3.83-11.46
	c-0.23-0.91-1.58-1.14-1.58-2.07l5.42-2.97l5.18,14.89L630.82,593.39z M282.07,592.94L282.07,592.94l-1.59-0.92
	c0.67-0.94,1.13-1.15,2.04-1.15C282.07,591.79,282.75,592.47,282.07,592.94z M661.71,595L661.71,595c-1.13-0.47-2.26-1.37-2.71-1.61
	c-0.44-1.6,0-3.67,1.13-3.89l4.74-0.7c0.89,0.7,1.56,2.07,1.56,2.99c-0.67,1.6-1.78,2.74-3.14,3.21H661.71z M592.49,595.45
	L592.49,595.45c-4.29-0.92-7.2-5.27-10.37-9.18c-0.45-1.13-1.57-3.42-0.23-4.79l1.59-0.47c1.81,1.14,3.16,0.92,5.17,1.84
	c3.84,2.53,5.64,8.02,6.33,12.6H592.49z M259.53,595.45L259.53,595.45c-7.43-3.43-9.68-11.45-15.77-15.11
	c6.98,2.51,15.55,4.12,20.29,9.16C263.15,592.02,261.79,593.85,259.53,595.45z M615.49,596.14L615.49,596.14h-0.44
	c-0.68-1.14,0-2.51,0.44-2.75l10.6-3.89c-0.9,2.52-3.84,4.36-5.42,5.95L615.49,596.14z M581.22,596.14L581.22,596.14h-0.67v-2.75
	c1.34-0.69,2.23,0.46,2.23,1.61C582.12,595.91,581.89,596.14,581.22,596.14z M605.57,597.75L605.57,597.75
	c-1.37,0-2.04-1.62-3.61-2.3c-1.58-1.59-3.83-3.43-2.47-5.27l29.31-9.17c-5.87,5.97-16.48,5.26-19.39,13.52
	C607.16,595,607.16,597.51,605.57,597.75z M277.8,600.94L277.8,600.94l-9.03-3.43l3.61-1.38c2.47,1.62,5.42,2.5,7.22,4.81H277.8z
	 M570.63,601.64L570.63,601.64h-0.69l0.45-13.75c1.14-0.92,1.82-1.84,3.39-1.84l1.11,0.92c1.14,5.04,2.03,10.53-2.02,13.28
	C571.53,600.72,571.53,601.64,570.63,601.64z M373.61,600.94L373.61,600.94l0.67-1.61c-0.45-0.92,0-1.58-0.45-2.28
	c-0.22-0.92-1.12-0.92-1.59-1.61c0,0,0-0.45,0.47-1.59c2.48-4.14,6.3-7.11,10.59-8.25v1.38
	C381.95,593.39,378.56,598.64,373.61,600.94z M355.12,600.94L355.12,600.94l-0.9,0.7l-7.89-12.15c0.91,0.22,1.35,0.22,2.93,0.92
	c3.6,1.61,6.09,5.03,6.54,8.92C355.35,600.26,355.35,600.72,355.12,600.94z M295.82,600.94L295.82,600.94l-0.44,0.7l-7.66-9.18
	V582.4l1.57-0.92h1.6C294.71,586.98,298.1,594.3,295.82,600.94z M366.61,601.64L366.61,601.64l-0.45,0.68l-3.15-9.62
	c-0.91-0.23-1.58-0.23-2.26,0l-1.34,0.92c-2.73-5.96-1.13-13.28,1.58-18.33c5.63,7.55,4.51,17.17,6.31,25.65L366.61,601.64z
	 M511.34,604.15L511.34,604.15l-0.44,0.24l0.44-1.83c-0.22-1.84-1.8-1.84-2.02-3.22c2.7-2.73,6.75-6.4,10.36-5.48L511.34,604.15z
	 M502.32,604.39L502.32,604.39l-0.67,0.45l-0.89-2.28l0.67-3.92c-1.37-1.81-3.4-1.13-4.29-2.5c0-5.26,0-12.14,4.29-15.57
	C505.71,587.9,502.99,596.83,502.32,604.39z M181.32,604.84L181.32,604.84c-0.69,0-1.81-0.69-1.81-1.6
	c2.26-6.19,7.43-9.62,13.98-10.55c0.9,0.92,2.48,1.6,2.25,2.75c-1.35,1.38-2.47,2.97-3.37,4.81
	C190.1,603.24,185.38,605.07,181.32,604.84z M635.11,605.3L635.11,605.3h-0.25l-4.04-6.66l8.34-0.89l-3.16,7.09L635.11,605.3z
	 M642.09,606.45L642.09,606.45h-0.69c-0.67-2.06,0.91-3.67,1.59-5.51c1.79-3.19,5.86-3.19,9-3.19l2.94-1.62
	c1.13,0.47,0.9,1.62,0.9,2.5c-1.35,2.54-3.6,4.6-5.42,6.43C647.95,606.68,644.78,606.45,642.09,606.45z M627.66,606.9L627.66,606.9
	c-4.06-1.14-7.89-1.6-9.69-5.72c3.61-2.54,6.76-0.23,9.69,1.38l1.14,3.89L627.66,606.9z M488.79,606.9L488.79,606.9l-7.2-5.96
	l-1.8-7.09c4.05-0.46,6.3,2.28,10.37,3.66c1.58,0.69,3.38,2.75,3.16,5.05c-1.8-0.69-4.05-1.38-5.41,0
	c-0.69,0.22-0.89,1.59-0.89,2.28l0.89,1.61L488.79,606.9z M565.21,611.72L565.21,611.72l-0.21-0.23c6.54-3.44,12.17-7.55,19.38-11.9
	c3.16-2.07,7.22-0.25,9.69,2.06L565.21,611.72z M314.31,611.72L314.31,611.72l-15.32-5.27l2.47-9.62L314.31,611.72z M409.9,613.08
	L409.9,613.08h-0.22l4.95-8.92C414.86,608.28,412.82,610.79,409.9,613.08z M202.72,613.08L202.72,613.08l-0.45,0.26
	c-0.91-0.7-0.91-0.92-2.48-2.54c-1.8-4.12-2.48-10.53,0-14.19c3.39-0.47,5.42-2.75,7-4.58c3.6,2.97,10.14,1.6,11.72,7.31
	c-0.24,0.92-0.46,0.92-0.46,0.92c-5.41,0.68-6.32-4.81-10.14-6.41c-0.89,0.44-1.12,1.14-1.58,1.59l-1.12,15.34L202.72,613.08z
	 M547.86,614.92L547.86,614.92l-0.45-0.22l11.94-13.05c1.14-0.7,2.71-2.31,4.07-1.38l1.37,5.04L547.86,614.92z M491.73,616.29
	L491.73,616.29h-0.67c-1.13-0.91-2.48-2.05-2.48-3.22c1.57,0.7,3.82,0.7,3.82,2.53L491.73,616.29z M315,618.13L315,618.13
	c-15.57-1.59-31.78,0.9-46.91-5.5c16.24,1.61,32.91-0.22,48.48,5.27L315,618.13z M334.38,619.03L334.38,619.03
	c-13.07-5.7-26.16-18.77-32.92-31.82c3.83-0.94,7.9-2.75,11.27-0.22l3.61-1.85c5.64,6.89,10.38,14.9,13.31,24.97
	C331.67,613.08,332.79,616.29,334.38,619.03z M661.02,620.41L661.02,620.41l-0.9,0.23c-0.9-1.62-1.57-3.21-2.48-5.96
	c-0.69-5.04-0.9-11.91,3.37-14.65c2.26-0.92,5.18-0.92,7.68-2.52c4.27-0.68,9.67,0.69,12.16,3.43l1.12,5.96
	c-7.22,0.69-11.72-4.34-16.46-7.56l-1.58,0.92l-0.67,1.38c1.36,2.3,1.8,3.66,1.8,6.87C665.53,613.33,663.29,617.44,661.02,620.41z
	 M344.76,621.57L344.76,621.57c-6.31-3.68-10.38-9.39-12.86-16.73c-1.59-6.64-6.53-12.82-7.9-17.64c3.83,2.05,7.9,5.73,10.38,9.85
	C338.21,605.3,342.28,613.33,344.76,621.57z M519,623.17L519,623.17l-0.68-0.22c1.59-2.98,2.71-6.2,4.29-9.18
	c5.42-9.83,7.89-19.24,16.01-25.19c-3.16,5.95-6.54,12.14-8.32,19.93C528.03,614.69,525.3,621.33,519,623.17z M560.03,624.08
	L560.03,624.08l-18.94-0.45c6.77-4.11,14.42-2.98,22.09-6.19c12.18-3.2,24.58-3.66,36.3-0.69c-3.16,2.06-6.55,2.28-10.38,4.36
	C578.96,622.95,569.94,624.08,560.03,624.08z M484.73,625.46L484.73,625.46h-0.44c-1.13-2.51-1.57-6.43,0.44-7.11
	c1.59,0.68,2.95,1.16,3.62,2.76C487.21,622.95,486.31,624.08,484.73,625.46z M377.89,625.46L377.89,625.46l-0.23,0.22
	c-1.58-1.14-3.16-2.51-3.37-4.11c-0.45-1.16,0.45-2.76,1.8-4.36c0.67-0.92,1.81-2.3,2.93-0.92l-0.68,8.49L377.89,625.46z
	 M368.19,626.36L368.19,626.36c-2.03-0.68-4.06-1.59-5.18-3.19l0.44-0.92c2.04-0.92,4.29-0.23,5.18,0.92l1.8,3.19H368.19z
	 M491.73,627.99L491.73,627.99c-0.67-0.7-0.9,0.22-0.9-0.92c0.68-1.38,1.79-2.98,3.16-2.98h2.47c0.23,1.38,0,2.07-0.44,2.98
	L491.73,627.99z M244.2,627.99L244.2,627.99v0.22c-5.63-1.37-8.34-5.03-11.27-9.4c5.19,0,11.72,0.22,14.87,3.68
	c0.23,1.37,0.9,1.59,1.15,2.29c0.89,0.68,1.33,0.91,1.58,1.59l-4.3-2.29c-1.12,0.7-2.02,1.61-2.26,2.29
	C243.97,627.06,244.2,627.76,244.2,627.99z M247.37,634.4L247.37,634.4l-0.69,0.22c0.69-1.15-0.45-3.21,0.69-3.43
	c1.34,0.67,1.59,0.67,2.02,1.37C248.95,633.71,248.04,633.71,247.37,634.4z M336.39,639.21L336.39,639.21l-0.67,0.22l-3.82-5.04H347
	L336.39,639.21z M464.45,643.33L464.45,643.33l-0.89-0.47c5.86-6.86-0.92-16.03-1.59-23.14c2.7,1.39,5.42,2.3,7.22,4.36
	c0.23,1.38,0.9,1.61,2.25,3.21c2.48,4.58-1.58,9.87-2.94,14.44L464.45,643.33z M370.44,643.33L370.44,643.33
	c-5.41-4.12-12.16-6.41-19.15-5.5l-0.45-2.73c9.92-1.38,18.71,5.27,28.17,6.64v0.91L370.44,643.33z M305.29,644.93L305.29,644.93
	h-0.68l15.12-6.66c-0.9,2.08,0.67,4.59-0.9,5.95L305.29,644.93z M351.74,646.54L351.74,646.54h-0.67c-0.69-1.38,0-3.9,1.12-4.12
	c1.13,0.45,1.59,0.92,2.26,1.81c0.91,0.93,0.68,1.64,0,1.64L351.74,646.54z M283.21,646.54L283.21,646.54l-0.46-0.47
	c10.6-3.21,19.16-8.25,28.64-13.95c7.66-3.91,17.12-5.75,25.46-4.83c0.7,0.92,0.44,1.38-0.46,1.38
	C315.89,629.59,302.81,645.86,283.21,646.54z M227.75,646.99L227.75,646.99h-0.67c0.67-1.84,2.7-2.98,4.05-5.04
	c2.7-3.22,7.22-5.72,11.95-5.27c-1.59,0.92-2.94,1.14-3.62,2.06c-0.44,1.38,0,2.52,0.46,2.99l1.14,1.13L227.75,646.99z
	 M327.16,648.59L327.16,648.59l-0.44-0.23c-2.26-2.5-2.94-7.1-1.35-10.54l1.8-0.67l3.14,3.89c0.69,2.52,1.37,5.95-0.89,7.54H327.16z
	 M336.39,651.12L336.39,651.12l-1.11,0.46c-0.9-0.69-1.13-1.4-0.9-1.84c0.68-1.38,2.02-2.28,2.47-3.88c2.71-3,6.32-5.5,9.48-4.13
	c-0.22,1.13-0.22,2.49-0.22,4.13c-0.91,2.73-2.48,4.8-5.2,5.26l-2.93-0.93C336.85,650.66,336.64,650.89,336.39,651.12z
	 M318.82,657.31L318.82,657.31c-1.35-0.47-2.94-1.38-4.51-1.61c-2.03-1.37-5.18-3.44-4.95-5.96c2.48,0.23,4.95-1.16,7.9-0.69
	c2.7,1.14,4.95,3.67,5.62,6.65l-0.9,0.92L318.82,657.31z M329.41,657.99L329.41,657.99h-0.91c-0.67-1.38-1.58-2.98-0.67-3.66h2.93
	l0.24,2.98C330.31,657.99,330.09,657.99,329.41,657.99z M333.26,680.2L333.26,680.2h-0.69l-4.73-16.47l-1.11,0.45
	c-1.58,1.37-2.05,2.99-2.94,5.5c-2.25,2.28-5.41,5.71-7.9,5.49v-3.21c0.68-5.05,5.18-8.23,9.25-10.31l2.7,1.61l3.83-0.69
	c0,0,0.9-0.23,1.59-0.92c3.59-1.6,2.47-5.28,3.59-7.32l1.59,0.68c3.83,1.61,8.55,6.41,9.24,9.84c-1.13,0.47-2.26,0-3.83,0.71
	c-4.29,1.62-5.64-4.36-9.03-5.04c-0.89,0.68-1.33,1.14-1.56,2.06c2.7,4.82,3.38,12.15,0.89,16.94L333.26,680.2z M534.33,653.42
	L534.33,653.42c-0.89,0-2.48-0.92-2.48-1.61l3.61-8.95l1.37,7.33l-1.81,3L534.33,653.42z M441.68,655.01L441.68,655.01l-0.67-0.22
	l5.41-19.24v14.65l-3.15,4.14C442.57,654.78,441.9,655.01,441.68,655.01z M413.05,655.7L413.05,655.7
	c-10.13-3.2-20.75-7.56-31.55-3.2c-4.75,0.22-8.79,0-10.84-3.91c-0.22-0.89,0.69-1.13,1.37-1.59l30.43,2.75l0.46-1.61l-7.47-5.5
	c-0.88-1.38-1.11-1.84-1.78-3.43c-1.37-4.81-0.68-8.25-0.46-12.15c1.13-1.83,3.16-4.57,5.18-4.57c-1.11,1.59-0.67,2.29-1.36,4.57
	c-2.69,14.67,9.7,20.63,16.69,28.64H413.05z M540.19,660.05L540.19,660.05l-0.22,0.46c-0.9-1.37-1.59-3.9-0.45-4.81l12.4-0.69
	l-1.13,1.36c-2.03,2.78-4.96,4.14-8.34,2.78C541.09,659.15,541.09,660.05,540.19,660.05z M425.23,660.51L425.23,660.51l-5.41-2.06
	v-2.08c-2.48-3.64-4.95-7.32-4.95-13.04c0.67-2.97,0.67-8.24,3.14-9.4c1.36,5.28,1.36,10.08,1.81,15.81c0.67,4.58,4.5,8.25,7,10.77
	H425.23z M375.86,660.51L375.86,660.51l-10.36-4.81c-1.59-1.83-2.25-4.58-2.04-6.65c1.14-0.69,2.04,0,2.25,0.69
	c0.46,1.38,0.91,2.76,1.59,3.67c9.45,9.85,23.88-3.23,34.48,3.89L375.86,660.51z M531.85,661.2L531.85,661.2
	c-0.91,0.22-0.91-1.15-0.91-1.61l0.91-1.38c1.13-0.22,1.59-0.68,2.48-0.22c0,1.16-0.67,2.06-0.89,2.52L531.85,661.2z M468.28,661.65
	L468.28,661.65l-12.86-4.12c9.93-2.52,21.21-0.92,30,3.21L468.28,661.65z M251.42,662.34L251.42,662.34h-0.89
	c-1.14-2.29-0.24-4.35-1.58-7.33c1.58-5.27,0.89-11.68,1.58-16.27l3.14,8.95l1.58-0.7c1.13-1.61,1.13-4.36,1.13-6.64l0.67,5.5
	c0,0,0.69,0.92,0.91,1.83C259.09,654.33,255.48,659.15,251.42,662.34z M612.32,664.85L612.32,664.85h-0.45
	c-4.72-2.51-5.62-6.86-6.3-11.66l2.92,1.82c0.92-0.22,1.36-0.68,1.58-0.91l2.26-13.74l11.72,1.37l0.46-1.37l-8.79-6.42l4.28-3.66
	l1.58-3.21c-0.44-1.38-1.13-1.83-2.48-2.28c-2.71,0.91-4.06,2.98-5.86,4.81c0.23-0.7,0.67-1.39,1.59-2.31
	c4.95-4.11,13.29-7.77,20.29-6.87c-0.92,1.61-1.59,2.07-2.5,4.36c-2.92,2.51-5.62,6.18-9.68,6.18c-1.35,0.46-2.93,1.83-2.93,2.97
	c1.58,2.98,3.83,3.89,7,3.67c6.53,1.61,10.36,7.55,11.95,13.52c0,0-0.68,0-1.59,0.46c-9.24,0.23-15.78-5.72-21.87-8.72
	c-1.13,0.47-2.02,1.62-2.02,3c3.82,5.95,0.89,13.05-0.68,18.76L612.32,664.85z M513.59,671.28L513.59,671.28l-0.91,0.22l-1.35-1.13
	l2.26-3.19l10.59-3.91l1.11-2.06l-1.11-1.61c-2.47-1.6-5.64-3.66-7.45-7.09c-0.22-1.38-2.7-5.51,0-5.96l5.42,0.92
	c4.96,4.12,3.39,11.45,4.29,17.39C523.74,669.89,519,671.49,513.59,671.28z M546.27,675.17L546.27,675.17l-1.11,0.22l-7.45-5.03
	l-0.89-5.04l6.54,0.46c0,0,0.66,0.46,1.58,1.14C547.86,668.3,547.18,672.19,546.27,675.17z M528.03,682.72L528.03,682.72l-0.68-0.23
	c0-3.19-1.59-6.86,0-10.53c0.9-2.07,3.83-5.72,5.4-4.79c0.23,5.49,0.68,11.67-3.15,14.87L528.03,682.72z M122.53,309.99
	L122.53,309.99c-1.09,9.52,3.39,19.44,7.13,27.96l13.07,19.94l-5.86,8.25l-14.43-9.87c-0.91,0-2.25,0.48-2.25,1.62l3.83,16.94
	l-15.11,8.46c0,0.71,0,0.94,0.68,1.62l12.15,6.41c0.91,5.74-0.67,13.06-4.04,18.11l18.46-7.77c0,0,5.7,8.62,8.05,8.78
	c2.35,0.14,8.25-5.78,8.25-5.78l6.73,18.99c0,0-15.78-10.64-31.82,3.42c-7.2,7.56-7.42,21.07-1.8,30.91
	c3.38,3.45,4.73,6.2,8.11,7.56l2.26-0.68c-2.26-4.35-2.26-10.07-3.83-15.12c-0.68-5.26,0.38-15.73,1.75-20.09
	c9.69,5.73,22.16,14.84,29.99,22.57c8.82,8.74,5.9,21.35,12.67,28.9l-8.81,1.6c-5.17-4.8-8.78-12.37-18.04-13.05
	c-4.04-0.22-7.65-2.52-11.26-2.28l-0.9,1.37l10.14,13.05c-4.96,4.82-11.72,8.47-16.23,15.59c-1.8,1.13-4.06,2.5-4.28,4.36l0.45,1.36
	c6.33-1.36,13.31-1.36,19.84,0c1.58-0.23,2.71-0.23,3.84,0l2.03,14.22l1.58,0.68c2.25-1.6,2.02-5.03,3.83-6.86l5.41-3.9l3.61-6.65
	c-0.86-1.06,1.49-9.56,1.49-12.4l10.04-2.34c13.27,28.92,44.12,59.96,60.42,84.47c-25-6.41-50.52-55.76-83.88-47.74
	c-5.64,5.96-9.24,16.73-6.55,26.35c2.26,9.63,7.89,14.2,15.77,17.87c5.2,1.82,8.81,4.14,12.84,6.87c0.46,0,1.82-0.22,2.04-0.92
	l1.14-1.13c-4.51-14.44-23.91-16.26-26.61-30.93c1.81-4.81,8.12-4.12,13.07-3.89c11.5,3.21,18.02,13.98,27.27,21.31
	c-2.92,5.49-4.72,10.53-4.05,17.18l-21.42,5.5l-0.66,1.14l13.51,11.91l-9.69,15.13c0,1.37,0.22,2.28,1.59,2.75l9.01-0.68l10.82-2.52
	l1.13,0.45l6.31,12.83h1.58l8.33-8.94l0.92-5.95l11.94-0.69c0,0-1.63-11.95-11.51-15.13c0,0,20.22-20.35,45.78,9.63
	c9.25,3.22,18.03,5.74,26.59,8.7v0.92l-33.58-1.37l-1.12,1.14c-0.67,0.46-0.44,1.83,0.44,2.52l27.28,9.17c0,0.91,0.92,0,0,1.37
	c-6.54,0.23-14.42,6.19-21.19,4.57c-4.5-6.86-13.51-10.97-22.99-11.45c-3.61,1.16-7.44,0-10.6,2.07l-0.23,1.6L240.79,633v1.61
	c-11.95,2.52-15.33,12.83-23.44,19.24l-0.68,1.59c0,0.7,0.22,1.38,1.14,1.61l28.85-8.46l0.91,23.12c0.67,1.85,3.14,0.23,3.61-0.22
	c5.84-6.2,12.83-12.15,11.7-21.3c-19.35-39.3,75.43-22.49,75.88-22.02c-35.74-2.82-49.99,15.56-50.22,15.56
	c-7.01,4.96-12.2,8.33-12.2,8.33c8.83,0.59,17.84-0.25,26-4.17c0.44,0.25,0.66,1.16,0.66,2.31c3.16,5.04,8.57,10.29,14.21,13.06
	c-3.14,5.25-4.96,13.96-4.51,20.61l13.31-7.1l7.45,13.99h1.57c1.81-5.74,6.32-10.79,5.86-17.44c2.92-3.21,8.79-1.37,12.84-1.37
	c2.49-4.35-2.02-8.47-4.72-11.9c-1.13-1.61-1.57-2.06-2.04-2.98l0.22-1.61l11.97-3.21l2.69,7.11c16.02,16.27,40.8-2.29,60.42,5.27
	l2.7,2.27c-8.78,7.11-20.06,14.44-31.79,19.72c0,0-0.22,0.45-0.66,1.37l0.66,1.15l10.6,1.14l4.29,2.97h0.44l0.67-0.21
	c0.67-6.42,4.73-11.69,10.16-14.22c4.28-2.98,8.33-4.81,12.17-8.48c9.69,2.08,16.24,9.62,23.22,17.18l4.28,2.76l10.83-2.76l0.9-1.13
	l-17.58-9.62c-0.68-0.68-0.68-1.14-1.59-2.06l-12.17-10.08c0,0,7.26-7.83,34.12,2.77c-1.2-0.08,7.27,2.28,20.17,0
	c-3.27-13.76-35.39-10.68-35.39-10.68l19.63-5.87c22.41-10.41,34.69-4.3,34.69-4.3l4.33,15.1v1.61l-11.5,10.06
	c-0.45,0.25-0.91,1.61-0.45,2.53c5.4,1.6,10.81,1.6,16.47,1.38l4.05,13.53l1.13,0.67l6.09-4.12l5.18-8.02l1.57-0.46l8.57,5.96
	c2.7-3.44,4.74-9.16,3.38-14.89c-0.67-2.04-1.56-2.29-1.56-4.59l12.62-13.05l-18.49-0.49l-5.16-14.14l-10.16,10.99l-13.29-7.8
	c0,0,10.95-10.87,20.24-11.81c-0.83-0.17,52.36,3.91,62.95,8.63c0,0,0.47,17.98,2.68,18.54c3.16,5.5,4.3,13.06,11.28,15.35
	c2.47,0,3.39,1.82,5.19,0.92l3.14-18.56c8.12,0.68,18.27,6.62,27.29,2.06c0.45,0,0.66-0.47,0.66-1.38l-0.66-1.36l-3.16-1.38
	c-4.07-4.8-7.21-13.51-14.43-15.81c2.7-5.03,10.14-9.16,10.81-16.73v-1.59c-9.69-0.23-22.32,2.74-29.54,9.62
	c-3.37,3.43-6.29,7.33-11.94,6.64c-5.18-2.29-9.24-2.06-13.97-4.82c0,0-0.46-0.68,0-1.38c9.92-1.82,18.48-5.93,26.6-10.28
	c1.12-1.16,1.8-1.36,2.7-2.07c0.47-0.68,0.69-1.14,0-2.28c-9.24,2.05-18.92,2.05-28.4-0.23c0-1.14-1.36,0,0-1.14
	c7.45-3.2,16.92-8.71,25.71-7.11c5.19,4.12,10.84,9.62,18.04,8.25c8.34-0.92,15.33-0.23,22.99-1.14l3.61,17.4
	c0.46,0.69,0.67,1.16,1.58,1.61c6.99-4.11,9.47-11.91,12.4-19.01l16.46,2.52l-2.71-14.43c0-0.24,0-0.91,0.46-1.62
	c5.63-1.6,10.14-5.95,14.2-10.75c0.68-0.69,0.24-1.84-0.67-2.53c-7.89,0.92-16.01-5.48-24.12-1.36h-1.58l-1.81-19.94
	c-0.22-1.37-0.22-2.28-1.34-2.52l-1.58-0.44c-2.03,5.27-4.96,9.61-7.67,13.74c-0.68,2.52-0.89,5.04-2.26,7.1l-15.33-4.59
	c9.47-9.62,22.54-15.34,33.14-24.52c10.14-5.72,20.96-14.9,34.26-13.05c0.91,0.68,1.58,1.61,2.03,3.66
	c-5.18,12.37-23.67,11.69-24.34,29.09l0.22,1.6c0,0.46,0.67,0.46,1.36,0.7c7.89-5.96,22.31-5.96,25.25-17.87
	c2.25-4.36,0.68-8.94,2.25-13.05v-1.61l-3.82-11.46c-3.61-5.73-13.3-5.03-19.63-3.21c-15.09,4.59-24.11,14.67-36.74,20.84
	c-1.12-0.91-0.44-3.21-0.22-5.03c15.78-11.46,33.81-24.97,39.68-46.26l1.36,0.68c-0.91,10.53,6.53,16.49,12.84,24.52h1.8l3.17-13.76
	c3.14-0.91,7.66-0.91,11.26-2.52c3.38-0.23,4.52,2.29,6.99,2.29c2.04-6.39-3.61-11.45-6.31-16.96c-2.49-2.73-4.74-3.87-6.54-5.27
	l2.71-9.39c0.67-1.61,3.59-1.83,4.05-4.35c-0.21-1.38-1.57-2.52-3.15-3.21c-8.57,0-16.46,3.44-21.4,10.09
	c-1.58,2.49-4.52,5.48-6.77,6.85c-1.8,0-4.28,0.24-5.64-1.37c1.58-2.99,4.51-4.13,6.77-6.64c12.4-12.83,20.29-25.44,27.72-39.41
	c2.48-0.69,3.85,1.16,5.42,1.83c2.7,5.5,1.13,12.38-0.89,17.87c-1.36,3.45-2.94,5.27-4.52,7.56l0.46,1.38
	c0.44,0.47,1.12,0,2.02,0.23c7-3.89,10.38-10.53,12.85-19.01c0.91-7.11-2.47-13.51-5.62-17.87c6.54-4.58,11.71-12.15,14.42-21.53
	l-1.13-0.46l-3.83,2.74l-1.35-0.67l-1.58-15.59l12.62-5.27c1.81-1.61,0-4.59-1.36-6.21c-0.89-0.44-1.11-0.88-1.34-1.8l-7.9-3.45
	c-0.91-6.19,2.26-14.43-2.94-19.7l-11.48,11l-7-8.26c2.93-2.51,5.42-5.72,7.67-9.15c0,0,8.99-13.75,5.24-25.07l-0.89,0.31
	c-3.82,3.05-18.89,22.02-24.34,35.11c-0.94-2.41-3.27-29.5-6.55-35.17l6.31-4.96l6.54-5.9c1.16,3.77,13.09,8.02,13.09,8.02
	l14.3-3.39c-0.36-0.62-1.02-0.49-1.42-1.33l1.24-7.31l-1.05-0.69c-0.67,0.14-1.13,0.22-2.17,0.68c-3.9-1.05-8.77-5.64-14.78-5.78
	c-0.37-1.79,1.42-3.12,2.56-4.28c4.5-6.09,4.06-12.56,4.17-19.85c-0.03-0.21-0.34-0.62-1.46-0.38c-1.94,5.09-9.52,7.4-13.72,11.56
	l-1.69-0.34l-8.54-17.86c-4.82,8.97-4.59,22.28-1.35,32.36c1.03,1.65,2.03,3.07,2.69,4.1c0.28,1.35,2.26,0.93,3.31,2.59l-9.19,6.62
	c-1.4-3.4-3.64-10-4.12-13.46l0.11-0.06l-0.21-5.39l2.53-23.37l-1.67-6.95c-0.21-0.82-2.34-2.61-3.12-3.52
	c-0.57-0.55-1.22-0.65-2.14-0.38l-3.61,11.91c-1.91-3.02,0.44-6.43-0.7-9.98c0.46-2.6,0.79-4.56,2.24-6.53l6.04-2.96l4.31-8.42
	c-1.66-1.86-4.31,1.92-7.04-0.14l-0.72-9.75l-1.14-1.1l-4.52,3.23l-2.79,3.31c-1.76,1.26-2.13-1.71-3.91-1.59
	c-2.82,2.2-2.5,6.73-1.98,10.19c6.22,7.37,8.71,18.33,6.98,28.33l-8.29-10.64c-2.16-5.31-1.81-12.42-2.04-18.73
	c-1.59-4.78-2.33-9.37-5.88-13.14l-1.35,0.2l-2.18,11.26c-2.13-0.37-3.53-2.42-4.02-4.75c1.49-7.35,3.68-16.14-1.91-20.71
	l-1.32-0.02l-5.82,6.81l-10.79-2.59l-0.91,1.42l3.68,10.5l-4.96,4.5l-3.38,1.64l-0.04,1.57c3.85,3.13,9.9,5.11,14.42,3.22
	c2.27-1.61,4.62-1.21,6.69-1.72c5.48,2.76,10.24,8.3,11.68,13.93c-5.74,0.1-12.51-5.34-16.73-9.01l-1.35,0.2
	c2.98,9.49,9.96,18.8,18.4,24.76c0.86,0.16,1.46,0.48,1.46,0.48l-0.16,0.88l1.4,0.92c6.36,2.69,11.39,6.71,15.33,10.76l2.72,7.47
	c-1.07-1.04-2.15-2.22-3.26-3.46l2.75,3.72c0,0.23-0.23,0.68-1.12,0.68c-12.64-16.01-27.51-26.1-42.39-35.03
	c-1.12,7.33,6.09,13.74,9.69,19.71c6.08,5.03,11.72,11.21,16.92,14.65c-1.36,2.52-4.29,2.52-6.77,5.05
	c-4.06-5.05-6.53-11.69-13.75-13.98l-1.57,0.46l2.25,17.18l-18.26,5.25c-0.21,0.47-1.35,0.71-0.89,1.62
	c4.28,5.03,10.36,8.01,17.8,8.7l-6.31,16.72c0,0.47,0,1.61,0.89,2.07l17.35-9.4c1.14,0.92,1.59,2.52,3.17,3.9
	c3.15,0.68,5.63,3.2,6.76,6.64c0.44,0,0.69,0.46,1.58,0.69c2.94-1.38,3.38-5.72,3.85-9.17c0.22-1.14,0.22-1.6,1.57-1.36
	c1.11,0.91,3.38,2.97,3.38,5.03c-0.69,0.92-1.81,0.68-2.7,0.92l-0.67,1.37c2.24,9.17,8.34,17.19,16.23,23.13
	c0.22,6.19,4.73,12.84,2.47,18.57c-8.79-9.85-20.06-23.13-30.66-34.6c-1.35-2.06-1.35-3.2-2.48-3.88l-1.35,0.68
	c6.32,28.17,33.82,42.62,34.27,76.05c-2.03,7.33-4.51,12.83-8.8,18.78c-4.96,7.34-7,15.82-11.26,24.28l-1.59-5.72l0.46-17.06
	c-0.92-1.33-1.48-3.42-0.92-5.12l17.31-7.56c0-0.2,0.18-0.57,0.37-1.31l-0.37-1.32c-4.66-4.18-11.72-0.39-17.68-2.09
	c-1.68-1.33,1.29-3.59,0.37-5.48c-0.56-0.95-1.86,0-2.98-0.18c-2.07-4.38,0.93-10.03,3.16-13.25c2.05-1.34,1.49-2.83,3.17-3.41
	c2.97,6.06,0.37,13.24-1.87,19.48c0,0.2,0,0.75,0.75,0.75c3.91-3.22,3.72-9.63,4.65-14.74c-0.74-4.14,0-8.5-2.23-11.16l-1.29,0.2
	l-8.93,11.91c-2.79-5.3-6.33-10.79-12.29-13.8c-0.56-0.76-0.75-1.34-1.3-1.52c-0.57-0.19-1.5-0.19-2.42,0.18l5.22,24.97l-16.01,1.7
	l-0.57,0.76c2.03,4.35,7.62,8.31,11.9,11.33c0.74,0,2.42,0.21,2.61,1.34c-2.05,2.65-1.87,6.99-4.47,9.45l0.02,1.04
	c12.65-3.03,14.71,1.59,14.71,1.59c12.87,13.44,4.28,37.22,4.28,37.22c-3.25-28.29-24.2-31.54-24.2-31.54l10.73,23.69l-8.79,13.5
	l-14.43-15.57l-1.59,0.22l0.91,21.08c0,0.91-0.22,1.82-0.91,2.52l-15.55,5.94c2.49,5.06,9.25,7.35,14.88,9.87
	c0,0,6.98,1.41,13.03,0.71c0.69-0.69,6.59,3.71,5.87,11.29c-1.31,0.37-13.12,9.79-13.12,9.79l-3.68-0.09l-1.47-9.69l-11,5.17
	c0,0.46-0.23,0.46-1.13,0.7c-2.27-1.38-3.16-3.22-6.08-5.51c-1.35-1.61-0.91-4.13-2.02-5.03c-0.69,0-1.37,0-1.59,0.68
	c-3.15,8.01-5.63,17.88-0.9,26.12c2.5,2.3,3.16,3.43,4.06,5.27c-2.93,12.82-8.79,24.51-16.91,32.52l-1.58,0.69l-1.36-0.69l-3.6-5.27
	c3.6-5.73,12.18-9.62,13.99-17.87l1.57-1.61l-0.23-1.6l-21.62,3.9l-6.09-21.54h-1.59l-8.35,16.95c-1.78,3.44-7.2-0.68-10.59-0.92
	c-3.17-1.38-5.19-3.45-7.66-5.04l-1.12,0.46c-0.69,6.41-0.46,13.74,2.7,20.14c-3.88,1.89-7.41,4.1-10.68,6.63
	c0,0,1.68,7.81,19.49,10.33c0,0-17.89,23.94-29.45,28.89c0.15,1.65,8.2-34.59,8.2-34.59s-13.58,7.64-28.82,38.91
	c-4.04,4.15-9.46,5.29-11.93,9.86c-0.91,1.38-3.16,0.69-4.28,0l-17.58,5.28c-0.22,0-0.68-0.47-0.68-1.38l6.52-5.27
	c5.2-1.37,11.96,0.92,15.78-3.21c2.49-2.52,4.75-4.8,5.64-8.25l-0.67-2.29l-7.89,0.69c-1.8,0-0.91-2.3-0.22-3.21
	c1.11-1.59,1.58-2.52,2.69-3.88c9.46,0,16.01-6.4,20.97-13.06c1.57-4.35,3.15-6.88,5.64-10.77c0-0.69-0.46-1.38-1.36-1.6
	l-16.01,5.95l-6.98-21.98c-0.68-0.24-1.13-0.24-2.26,0l-6.76,20.84c0,1.84-2.25,1.6-3.83,1.14c-4.97-2.06-10.37-3.43-13.75-7.78
	l-1.15,0.23c-0.43,7.55,2.04,16.27,6.55,21.53c1.59,1.37,2.5,2.06,3.39,3.2c-1.8,4.81-8.11,9.39-4.73,15.56
	c0.68,1.38,1.59,1.62,1.8,3c0,2.53-2.47,4.12-4.28,5.74l-1.35-0.47c0.45-6.64-2.49-12.35-7.68-15.81
	c-6.52-2.74-13.74-3.21-16.68-9.61v-2.05c0.68-2.31,3.84-2.06,4.97-3.9c0.45-0.91,0-2.29-0.46-2.52l-10.82,2.75l-0.9,1.37v7.57
	c6.54,6.64,16.68,10.31,17.58,23.36c-1.35,7.79-6.53,10.76-10.37,15.58v-11.22c-0.91-5.74-1.58-12.14,2.26-16.26l-0.44-1.15
	l-1.81-0.44l-6.31,5.26l-11.27,32.06c-3.84,0.69-6.53-4.58-9.47-7.1c-1.8-11-2.48-21.54-7.21-30.71c-0.47-0.69-1.58-1.13-2.72-1.6
	l-1.34,0.91c1.34,5.26,1.58,11.69-1.81,17.42c-0.22,2.97-0.91,4.81-0.67,7.11c-2.26,2.06-5.18-3.9-7.44-5.51
	c-3.14-4.36-2.94-9.85-1.58-14.67c3.84-7.32,13.08-6.41,15.56-14.66c1.33-3.65,2.26-9.39-1.15-11.91c-2.92-1.36-4.04-4.34-6.31-4.81
	l-1.34,0.47l2.26,6.41l-1.14,6.2c-6.31,9.83-24.11,13.28-20.97,29.77c-0.45,0.68-0.45,1.6-1.58,1.37l-6.74-8.01
	c3.82-6.41,1.34-13.76,2.71-21.08c0,0-0.47-0.23-1.37-0.46l-1.34,0.22l-9.02,9.17c-1.8,0-2.5-2.53-2.5-4.13
	c0-0.91,0.7-2.52,0.7-2.52c1.58-2.52,4.28-4.12,6.31-6.41c9.25-5.74,11.5-15.82,12.84-25.66c0-0.92-0.45-1.37-1.58-1.6l-16.68,11.68
	l-9.01-23.59c-0.45,0-0.67-0.23-1.57-0.46l-1.36,0.46l-5.64,22.44c-4.27-1.37-10.58-4.81-15.99-2.97c2.03,5.04,7.2,7.78,8.78,13.06
	c4.51,5.49,8.57,10.76,15.11,12.36c1.57,0.69,3.83,2.53,4.27,4.81c0,0.7,0,1.38-0.21,2.29l-8.11,2.3c-0.25,0.23-1.37,0.47-1.37,1.6
	c2.94,5.04,6.98,9.16,13.51,9.85h6.33c1.59,0.92,2.71,2.97,4.07,4.58c-0.67,2.74-4.96-0.46-7.23-0.23
	c-16.67-3.89-25.45-16.5-30.42-31.16c-2.48-8.7-7.21-13.29-12.85-18.54c-9.69-3.2-14.88-9.87-22.77-14.91c0-1.13-0.9,0-0.22-1.13
	c3.38-4.81,8.34-9.62,9.02-16.26l-20.96,4.36c-2.94-6.41-6.31-13.75-12.18-19.02h-2.25l-2.27,19.02c-3.15,2.97-10.36,1.6-13.98,0.92
	c-1.35-0.47-2.25-0.92-2.47-1.14c-2.26,3.43,1.13,8.92,2.47,12.13c1.58,1.37,1.58,2.52,2.72,3.66l5.63,3.9l-3.38,5.28l-1.58,0.44
	c-0.67-0.44-1.35-1.36-1.81-2.98c-10.15-8.93-16.9-18.78-20.07-32.06c7.66-8.01,12.16-20.39,8.13-32.52
	c-0.47-0.48-1.59-0.92-2.95-0.48c0,3.24-1.58,5.06-3.38,7.57l-8.12,6.65c-0.23,0-0.9,0-1.58-0.69l-1.33-2.54l-0.49-0.85h-14.02
	c0,0-2.7,0.8-1.17,2.66l3.98,2.26c0,0,3.61,6.75,3.75,7.93c0,0,13.39,10.01,9.57,7.77c-0.6-0.36,2.17,6.41,1.4,5.9
	c0,0-26.86-20.74-26.86-24.05c-17.21-17.52,17.68-13.33,17.68-13.33c4.51-3.44,13.15-4.99,15.39-11.86v-1.38l-17.58-3.9
	c0.22-6.64,2.7-14.87-0.68-21.76c0-1.61-0.22-2.07-0.67-2.98c-0.22-0.67-1.59-1.13-2.48-0.67l-11.5,12.58
	c-2.48,0-3.15-3.43-5.42-4.35c-0.89-1.37-1.58-3.44-1.11-5.5c11.49-10.07,16.23-27.93,11.73-42.14c-1.14-3.68-2.95-5.27-4.53-7.8
	l0.22-0.92c4.31-0.68,8.58-2.07,11.06-5.72c1.81-3.2,2.48-6.17,2.7-9.38l-16.01-2.53c3.16-8.47,2.5-18.79,1.36-28.17
	c0-1.14-1.36-1.61-2.25-1.61l-12.86,17.64l-14.43-11.45c-1.8,9.39-0.91,21.98,3.6,30.69c-4.51,2.75-10.37,4.13-14.88,0.92
	c-0.91,0-1.57,0.23-1.57,1.61l5.4,8.01c4.06,1.39,8.12,5.03,13.53,4.36l-1.58,8.71l-9.46-5.03l0.22,14.65l-11.5-16.27
	c-5.63-24.97,7.44-46.5,21.87-62.53c6.53-8.03,14.2-15.13,13.52-26.59c-0.22-1.59-1.81-1.15-3.15-1.36
	c-0.67-1.61,0.45-2.98,1.57-4.12l9.01,6.64c2.27-0.22,2.94-4.13,3.61-5.96c0.47-3.66-0.45-7.11-1.11-10.31l8.33-5.03
	c0.45,0,1.82,0.68,2.71,0c1.36-0.93,0.91-3.21,0.23-4.83c-2.04-4.79-9.03-3.2-13.76-4.79c0.69-5.05,2.94-12.62,1.58-19.02
	c0-1.61-1.12-1.39-2.46-0.92l-14.43,12.35l-8.13-3.88c-0.22-0.23-0.69-0.45-0.69-1.6c12.64-9.39,28.64-18.33,33.82-36.2
	c0-0.69-0.22-1.13-1.56-1.59l-12.21,8.33c3.69-4.31,6.63-9.17,8.45-14.16l-1.34-0.26c-4.37,3.45-11.38,8.58-17.13,8.21
	c1.71-5.57,6.73-10.87,12.31-13.38c2.06,0.63,4.42,0.32,6.62,2.03c4.41,2.1,10.55,0.43,14.55-2.54l0.02-1.56l-3.29-1.78l-4.77-4.75
	l4.18-10.33l-0.84-1.43l-10.9,2.06l-5.5-7.07l-1.31-0.05c-5.82,4.31-4.02,13.2-2.86,20.62c-0.58,2.28-2.08,4.27-4.24,4.54
	l-1.65-11.35l-1.36-0.26c-3.7,3.58-4.66,8.16-6.46,12.84c-0.52,6.29-0.49,13.41-2.91,18.61l-8.76,10.24
	c-1.27-10.06,1.72-20.91,8.28-27.98c0.65-3.43,1.18-7.92-1.51-10.25c-1.79-0.22-2.29,2.73-3.99,1.4l-2.62-3.44l-4.38-3.45
	l-1.18,1.04l-1.18,9.73c-2.82,1.92-5.28-1.98-7.04-0.21l3.94,8.61l5.89,3.25c1.37,2.05,1.6,4.01,1.93,6.64
	c-1.31,3.51,0.9,7-1.15,9.93l-3.06-12.06c-0.91-0.31-1.56-0.22-2.14,0.28c-0.84,0.89-3.05,2.57-3.27,3.38l-2,6.87l1.45,23.46
	l-0.22,2.65l-0.5,0.09c0.25,2.98,0.44,5.93,0.54,8.9c-0.9,2.53,0,4.13-1.14,5.96l-1.56,0.47c-3.84-5.76-11.05-12.84-9.7-21.78
	c4.28-8.24,4.06-17.64,0.23-24.97c-1.81-1.6-2.26-3.23-2.71-4.58l-1.59-0.22l-0.89,0.92l-1.36,8.7c-2.26,1.15-3.15,4.13-4.06,6.88
	l-17.12-4.81c-1.13,0.45-1.59,0.69-2.03,1.62l10.37,17.85c-2.26,4.13-5.42,8.03-10.59,8.48c0,0,6.1,5.36,14,4.82l9.56,16.27
	l7.12,28.19L122.53,309.99z M216.22,514.62l13.92,1.5L216.22,514.62z"/>
<path class="st0" d="M358.49,94.92c0.69,0.32,1.3,0.69,1.82,1.13l1.32,1.3l-0.5,0.77l-0.61,0.76l-0.52,0.75l-0.6,0.72
	c-0.2-0.25-0.64-0.65-1.33-1.25c-1.73-1.41-2.08-0.61-0.69-2.67l0.6-0.73L358.49,94.92z M308.26,116.74
	c-2.67,3.61-7.28,2.37-8.89,1.99c-1-0.26-0.41,0.6,0.01,1.12c1.69,2.01,4.36,2.61,6.62,5.09c0.9,0.98,1.7,1.73,1.62,1.6l-0.5-1.94
	c-0.06-0.85-1.4-1.35-1.08-2.16c1.95-4.66,10.31-8.43,11.97-2.58c0.75,2.59,0.93,2.28,1.36,0.19
	C320.82,112.95,311.76,112.03,308.26,116.74 M507.92,112.91c0.51-5.24,0.86-11.09,1.37-16.34l1.29,0.87
	c1.56,1.02,0.95,0.36,0.37-1.18c-0.91-2.38-2.45-6.25-2.74-6.23l-1.59,4.5l-0.03,22.07L507.92,112.91z M468.34,121.92l0.7-0.61
	l1.34-1.36l-1.64-1.4l-1.12-1.44l-0.71,0.64l-0.63,0.69l-0.7,0.62l-0.62,0.67l1.11,1.49l1.63,1.4l0,0L468.34,121.92z M462.88,121.65
	l0.7-0.61l1.33-1.36l-1.63-1.4l-1.13-1.43l-0.7,0.63l-0.61,0.68l-0.73,0.63l-0.62,0.68l1.1,1.5l1.64,1.39L462.88,121.65z
	 M620.15,200.77l0.91,0.07c0.42-0.03,1.06-0.04,1.91-0.04c-0.16-0.74-0.23-1.46-0.22-2.14c0.06-0.91,0.11-1.52,0.22-1.82l-0.96-0.05
	l-0.92,0.05l-0.94-0.05l-0.92,0.05c-0.09,0.4-0.17,1.03-0.23,1.85c-0.03,0.69,0.04,1.43,0.19,2.16l0,0L620.15,200.77z M615.4,196.27
	l0.92,0.05c0.41-0.03,1.05-0.04,1.89-0.04c-0.16-0.75-0.22-1.46-0.2-2.15c0.04-0.89,0.09-1.5,0.2-1.82l-0.94-0.05l-0.92,0.05
	l-0.95-0.05l-0.92,0.05c-0.09,0.42-0.16,1.03-0.23,1.85c-0.01,0.71,0.05,1.42,0.21,2.16l0,0L615.4,196.27z M640.66,201.59
	c0.07-0.02,0.46,0,1.27-0.18c0.81-0.18,1.3-0.25,1.47-0.19l-1.05,2.64c-0.34,2.41,1.91,3.44,3.51,2.56l1.24-0.08l0.13,0.3
	c-1.11,0.83-2.39,1.57-3.81,2.2c-4.12,1.89-4.98-2.06-4.07-4.63c-4.97,1-4.33-2.43-3.39-5.08c-3.28,0.47-5.09-1.46-4.26-3.35
	c-1.05-2.53,1.21-1.73-2.75-3c-2.08-0.67-0.58-2.91-0.94-4.98c-0.7-3.85-12.73,0.91-14.44-0.58c-1.79-1.55-8.85-10.41-7.1-9.57
	c2.35,1.16,9.83,7.51,11.81,6.75c2.63-0.99,0.6-3.95-1.18-6.32c-1.27-1.67,1.78-3.4,3.77-4.51c1.12-0.61,4.37-1.33,5,0.87
	c0.68,2.4-2.48,4.65-1.12,7.72c1.58,3.49,3.74,1.46,5.75,2.31c0.88,0.35-0.58,3.88,0.08,5.48c0.66,1.64,3.61-0.27,3.92-0.93
	l8.44-8.48c0.91-0.91,2.87-0.77,4.15-0.5l14.13,5.83l-3.39,1c-2.74,0-12.59-5.94-14.03-4.51c-1.91,1.95-9.48,8.14-9.02,10.93
	l0.14-0.09l-0.13,0.16l0.03,0.1l-0.24,0.22c-0.77,1.53,0.62,3.82,2.42,3.01c0.09-0.04,0.47,0,1.29-0.18c0.8-0.17,1.28-0.23,1.44-0.2
	c0.15,0.2-0.02,0.66-0.51,1.36c-0.5,0.7-0.47,1.09-0.54,1.33C638.1,200.74,638.42,201.86,640.66,201.59z M313.49,132.97
	c-1.64-1.76-2.51-2.45-4.31-2.59c-1.3-0.11-2.2,0.23-2.7,0.89c-0.38,0.59-0.4,1.95-0.08,4.1c0.59,2.09,1.56,2.73,2.94,1.94
	c1.29-0.75,2.16-0.78,2.56-0.07c0.41,0.71,0.32,1.01,0.31,1.24c-0.27,5.51-7.64,10.53-12.73,12.24c-3.06,1.03-5.85,1.25-8.52-2.39
	c-2.28-3.12-3.84-7.6-2.04-1.35C293.91,164.12,323.03,143.22,313.49,132.97L313.49,132.97 M296.69,132.12l0.16-1.12l0.39-1.08
	l0.16-1.1l1.46,0.59l1.13,0.4c0.96,0.17,1.67,0.22,2.1,0.18l-0.17,1.12l-0.17,0.62l-0.15,0.56l-0.09,0.54l-0.24,0.66l-0.07,0.5
	l-0.17,0.46c-0.42-0.02-1.21-0.07-2.35-0.25c-0.49-0.07-1.25-0.41-2.31-0.86L296.69,132.12z M261.01,153.63l13.18,11.06
	c1.8,1.59,3.59,2.04,5.39,1.36l4.91-3.83c0.79-1.43,0.21-3.09-0.74-4.51l-5.98-4.52l-0.22,2.01l3.06,2.64
	c3.67,3.11-4.08,6.74-7.11,4.38l-13.54-12.56L261.01,153.63z M253.26,153.99c-0.43,5.21,0.47,7.85,2.71,8.57l11.57,4.52
	c3.94,1.74,2.41,4.27-0.21,4.69l-2.53-0.44c-1.18-0.26-1.56-0.19-1.26,1.21c0.04,1.8,0.94,3.39-2.72,3.65
	c-1.89,0.12-1.21,0.58-1.17,2.03c0.09,2.22-0.81,3.3-3.24,3.03c-1.47-0.15-1.52-0.68-1.53,0.97l-0.05,3.09
	c-1.89,4.12-4.39,4.78-7.46,3.44c-2.05-0.08-1.12,2.97-1.12,4.45c-0.44,4.53-3.44,5.56-7.94,2.03l-12.6-11.36l-2.57,0.21
	l15.82,14.47c5.25,5.37,11.64,2.64,9.52-5.35c3.58,0.61,7.86-1.33,8.92-8.23c3.88,0.26,6.25-1.4,4.63-5.78
	c3.49,0.7,5.77-0.26,4.11-4.56c5.68,1.04,10.4-3.78,4.48-8.41l-13.22-5.99c-1.53,0-1.75-1.74-2.14-6l3.96-11.99l-1.98-5.24
	L253.26,153.99z M351.09,115.89c1.02,1.75,6.89,2.06,9.2-1.64c0.7,2.44,4.56,3.05,5.98,0.48c0.78,1.71,4.35,2.85,5.81-0.71
	l0.07-0.26c0.69,0.56,1.89,0.95,3.66,0.86c2.17-0.08-0.29-2.56,2.64-2.56c0.48,0,1.13,0.42,1.81,1.45c0.96,1.49,3.2,2.26,4.85,1.75
	c1.72-0.53,5.55-7.09,4.89-1.64c-0.35,3.11,4.78,4.31,4.56,0.71c-0.31-5.11,1.55-1.87,5.12-2.66c1.27-0.29,1.46-3.12,0.83-4.72
	c-1.91-4.94-4.09-6.71-5.86-10.97l-0.19-4.09l12.64-9.92l0.67-3.66l-14.5,11.03l-0.06,7.31c-0.02,1.92,7.23,10.04,4.48,11.67
	c-0.92,0.53-3.23,1.41-7.01,0.04l-1.55-1.37c-1.1-1.02-2.26-3.46-1.86-0.8c1.27,8.65-7.97,4.69-10.68-1.09
	c-1.13-2.39-1.22-1.48-1.1,0.15c0.3,4.13,2.38,5.06-2.95,5.74l0.06-1.27l-0.3-0.07l-0.68,1.03c-0.62,1.77-4.14,1.98-4.73,0.09
	c-0.25-0.78-0.49-1.17-0.73-1.17c-0.15,0.1-0.36,0.5-0.7,1.25c-0.83,1.8-3.87,1.95-4.49-0.07c-0.25-0.8-0.5-1.19-0.75-1.19
	c-0.11,0.1-0.37,0.5-0.69,1.25c-0.34,0.74-0.57,1.04-0.62,1.1c-3.05,3.75-6.15,3.31-9.37-2.43c-1-1.82-1.15,2.43-1.12,2.46
	c0.84,0.76,2.37,7.79,1.65,9.09c-0.74,6.26-11.11,9.16-14.18,3.54c-1.74-3.2-1.88-6.81-1.42-10.61c0.11-0.96,0.95-3.79,0.56-2.91
	c-7.84,17.86,10.99,28.63,16.09,11.49C351.67,120.79,350.69,116.41,351.09,115.89 M609.84,167.16c0.3-0.83,0.46-1.46,0.48-1.89
	c0.04-0.43,0.05-1.12,0.04-2.06c-0.32,0-0.87,0.25-1.64,0.8c-0.78,0.52-1.21,0.89-1.31,1.07l-0.08,0.71l-0.18,0.82
	c-0.22,0.91-0.83,1.77-1.88,2.59c-1.02,0.8-1.88,1.29-2.53,1.49c-0.3,0.17-1.22,0.39-2.78,0.63c-1.55,0.23-4.75-0.44-9.6-1.99
	c-0.87-0.29-0.77,0.38,0.28,1.99c1.08,1.58,2.19,2.82,3.35,3.64c0.77,0.41,2.05,0.52,3.83,0.38c1.75-0.14,3.15-0.49,4.14-1.01
	c1.22-0.48,2.33-1.17,3.35-2.04c1.03-0.86,1.74-1.55,2.13-1.99l1.4-1.59L609.84,167.16z M380.09,123.2l0.5-0.75
	c0.21-0.38,0.52-0.94,0.95-1.67c-0.71-0.24-1.36-0.55-1.93-0.92c-0.76-0.5-1.23-0.87-1.45-1.11l-0.54,0.8l-0.42,0.83l-0.53,0.78
	l-0.42,0.83l1.44,1.13c0.58,0.38,1.22,0.7,1.94,0.93l0,0L380.09,123.2z M374.74,124.37l0.52-0.76c0.17-0.4,0.51-0.93,0.93-1.67
	c-0.71-0.24-1.35-0.55-1.93-0.92c-0.74-0.49-1.22-0.86-1.44-1.1l-0.52,0.8l-0.43,0.82l-0.53,0.79l-0.42,0.84l1.46,1.13
	c0.56,0.38,1.23,0.68,1.93,0.93L374.74,124.37z M324.01,137.1c-2.54-4.44-5.54-9.22-8.06-13.64l1.49-0.07
	c1.79-0.07,0.95-0.25-0.36-1.13c-2.04-1.36-5.43-3.51-5.64-3.35l1.26,4.45l12.32,17.38L324.01,137.1z M410.07,99.21
	c0.27-0.8,1.68-2.91,3.57-2.97c2.43-0.07,4.84-0.07,6.83,0.08c2.26,0.18,2.46,0.83-2.35,3.21c-3.46,1.7-8.38,7.34-8.38,11
	c0,0.79-0.07,2.41,0.16,3.3c0.34,1.33,0.85,0.56,1.21-0.71c0.36-1.26,0.1-1.96,0.24-2.79c0.14-0.86,0.64-2.01,1.46-3.06
	c3.17-4.03,9.25-8.58,11.65-5.81c0.56,0.65,0.34,1.89,0.53,3.22c0.25,1.72,1.27,3.04,3.11,3.61c2.02,0.6,4.27,0.87,5.99-0.17
	c0.79-0.5,3.35-2.91,3.67-1.87c0.46,1.5,1.13,2.82,2.21,3.34c0.85,0.39,1.81-0.25,3.3-1.11c0.58-0.34,0.97,0.6,1.58,1.43
	c0.62,0.83,2.69,2.43,4.75,3.25c1.61,0.66,2.7,0.58,4.35,0.7c4.53-0.29,7.43-0.21,10.63-0.74c1.16-0.19,2.27,0.05,2.28-1.25
	l0.01-1.3c-1.24-1.27-2.95-1.7-4.77-2.33l-4.08-1.41l-0.25-1.22c0.75-0.1,5.1-0.62,6.76-1.37c2.26-1.03,2.97-2.31,3.71-1.69
	c1.63,1.39,0.92,5.39,2.82,7.04c0.37,0.31,1.39,1.2,2.78,0.89c1.09-0.25,1.79-1.71,2.92-1.7c0.91,0,2.05,2.27,3.02,2.02
	c1.19-0.29,2.59-1.91,3.03-1.35c1.23,1.65,1.64,3.45,5.81,0.8c2.07-1.32,3.47,4.1,5.07,4.1c4.08,0,7.83,1.54,7.8-3.04l-0.05-7.22
	l-1.39,0.9l-0.19,5.03l-4.21-0.16c-3.04-0.13-5.13-3.79-5.83-7.29c-0.91-4.55-2.23-9.23-1.67-12.05c0.56-2.86,7.93-4.75,12.83-6.38
	c1.51-0.51,3.41-0.56,3.54-1.47l0.38-2.88c0.12-0.8-3.33,0.65-4.07,0.86c-4.34,1.31-10.38,3.7-10.94,3.97
	c-9.08,4.58,0.45,20.6-2.73,22.21c-1.86,0.95-2.91,0.11-3.18-0.77c-1.61-5-2.48,0.92-3.74,0.79c-2.14-0.2-1.9-5.48-3.98-2.13
	c-1.01,1.62-2.22,3.81-4.82-0.1c-0.48-0.71-1.16-4.18-1.34-6.47l-0.29-1.11l-1.41-0.56c-0.57,2.3-0.93,3.82-1.79,4.45
	c-2.56,1.89-6.1,2.57-10.21,2.79c-1.46,0.08-3,0.1-4.58,0.11l-2.27,0.53c2.35,2.52,6.2,3.82,9.1,5.2c0.59,0.27-3.21,0.32-5.22,0.22
	c-2.42-0.11-3.67-0.04-5.66-1.36c-1.14-0.78-1.91-1.66-2.68-2.75c-0.45-0.66-0.65-1.94-0.76-3.48c-0.05-0.91-0.09-1.91-0.08-2.91
	l0.09-4.11l-1.33,1.88l-0.27,2.01c-0.03,0.68,0,1.42,0.03,2.18c0.13,3.49-0.99,4.49-1.78,4.35c-1.16-0.21-2.2-2.68-2.86-3.24
	c-0.97-0.8-1.06,0.55-4.01,2.58c-3.83,2.66-7.93-1.52-7.85-4.17c0.05-1.49,0.17-1.32,2.38-1.66c0.81-0.1,2.99-0.32,3.53-1.18
	l1.58-2.55c0.91-1.46-3.21-1.37-5.53-1.71c-1.76-0.26-3.56-0.27-5.36-0.32l-9.72-0.2C411.97,93.14,409.62,98.58,410.07,99.21
	 M540.41,97.96c1.27,1.34-0.39,2.66-1.52,2.77c-0.98,0.1-2.09,0.39-2.59-0.34l1.05-1.77C537.61,97.79,539.63,97.17,540.41,97.96
	L540.41,97.96 M535.98,89.64c0.17,1.94,0.08,7.35-0.11,7.83c-0.46,1.23-1.1,3.14-2.58,3.04l-1.85-0.13l-0.3,0.96
	c1.22,0.32,2.42,0.65,3.66,0.81c1.57,0.19,3.68,0.46,5.27,0.14c3.78-0.78,4.98-7.86-2.02-5.77c-0.67,0.19-0.34-0.06-0.39-0.79
	c-0.12-1.15-0.15-3.21-0.19-3.95L535.98,89.64z M574.51,157.79l0.91,0.04c0.43-0.02,1.05-0.04,1.91-0.04
	c-0.16-0.74-0.23-1.46-0.2-2.15c0.04-0.9,0.11-1.5,0.2-1.82l-0.94-0.05l-0.92,0.05l-0.95-0.05l-0.91,0.05
	c-0.1,0.4-0.17,1.02-0.23,1.87c-0.02,0.68,0.03,1.38,0.18,2.14l0,0L574.51,157.79z M585.22,139.46l0.23,1.2
	c1.19,1.56,3.17,3.63,5.91,3.07c7.51-1.54,0.94,3.6-0.51,5.1c-4.18,4.36,7,16.19,10.91,12.42l1.73-1.67
	c1.2-1.46,2.02-0.72,1.86,0.99c-0.27,3.11-4.04,4.63-6.2,4.7c-4.8,0.12-10.45-5.16-11.79-10.4c-0.57-2.21-0.27-4.34,1-6.22
	c1.56-2.3-3.14-3.3-5.42-4.11c-0.72-0.23-0.6-0.26-1.09,0.31l-0.12,0.16c-0.86,1.05-1.86,1.9-2.99,2.56
	c-0.89,0.65-2.2,1.13-3.94,1.44c-1.74,0.32-3,0.31-3.85-0.07c-1.28-0.83-2.58-2.09-3.87-3.77c-1.3-1.69-1.49-2.41-0.58-2.17
	c5.03,1.31,8.3,1.77,9.8,1.37c1.51-0.39,2.38-0.71,2.64-0.92c0.64-0.29,1.4-0.91,2.29-1.89c0.89-0.97,1.37-1.98,1.44-3.03l0.06-0.92
	l-0.04-0.8l1.13-1.31l1.5-1.02c0.14,1.04,0.25,1.82,0.28,2.3c0.04,0.48-0.02,1.19-0.18,2.13l0,0L585.22,139.46z M588.34,130.6
	l0.91,0.04c0.42-0.02,1.06-0.04,1.9-0.04c-0.15-0.74-0.23-1.46-0.2-2.16c0.05-0.89,0.12-1.49,0.2-1.82l-0.94-0.05l-0.92,0.05
	l-0.94-0.05l-0.93,0.05c-0.08,0.41-0.15,1.03-0.23,1.86c-0.01,0.7,0.05,1.4,0.21,2.15l0,0L588.34,130.6z M578.74,161.85l0.92,0.08
	c0.41-0.03,1.04-0.05,1.89-0.05c-0.15-0.74-0.22-1.46-0.21-2.15c0.05-0.89,0.11-1.51,0.21-1.81l-0.95-0.05l-0.92,0.05l-0.94-0.05
	l-0.92,0.05c-0.09,0.39-0.17,1.01-0.23,1.84c-0.03,0.68,0.05,1.41,0.2,2.17L578.74,161.85z M539.43,144.72l0.82-0.44
	c0.36-0.22,0.9-0.55,1.62-0.98l-1.24-1.74c-0.4-0.83-0.65-1.38-0.72-1.69l-0.84,0.44l-0.76,0.5l-0.86,0.45l-0.75,0.5
	c0.12,0.39,0.36,0.97,0.71,1.72l1.23,1.76l0,0L539.43,144.72z M545.12,146.1l0.81-0.41c0.34-0.22,0.89-0.56,1.62-0.97l-1.23-1.78
	c-0.41-0.8-0.65-1.35-0.72-1.66l-0.85,0.43l-0.77,0.5l-0.86,0.42l-0.77,0.53c0.12,0.38,0.36,0.95,0.71,1.7l1.24,1.78L545.12,146.1z
	 M542.12,119.27l0.92,0.03c0.43-0.01,1.06-0.02,1.89-0.02c-0.14-0.74-0.21-1.46-0.18-2.15c0.04-0.9,0.09-1.51,0.18-1.82l-0.95-0.05
	l-0.92,0.05l-0.94-0.05l-0.91,0.05c-0.09,0.41-0.18,1.01-0.23,1.85c-0.02,0.68,0.04,1.41,0.19,2.13L542.12,119.27z M609.54,147.79
	c0.75,1.71-1.28,2.34-2.39,2.03c-0.94-0.26-2.1-0.36-2.29-1.24l1.59-1.26C607.01,146.61,609.11,146.77,609.54,147.79L609.54,147.79
	 M608.32,138.41c-0.51,1.89-2.49,6.91-2.82,7.28c-0.87,0.96-2.15,2.55-3.48,1.92l-1.7-0.78l-0.62,0.78
	c1.04,0.75,2.03,1.48,3.14,2.06c1.4,0.76,3.28,1.78,4.88,2.04c3.81,0.62,7.44-5.57,0.13-6.12c-0.7-0.07-0.28-0.19-0.09-0.88
	c0.31-1.12,1-3.04,1.24-3.77L608.32,138.41z M556.34,138.36c2.53-4.41,5.15-9.45,7.68-13.87l0.8,1.28c0.94,1.53,0.68,0.7,0.78-0.88
	c0.15-2.45,0.31-6.52,0.05-6.61l-3.17,3.32l-8.76,19.46L556.34,138.36z M226.94,193.7l0.81,3.1l6.02,4.35
	c1.43,1.15,1.68,1.98,1.8,3.83c0.89,13.59-13.96,12.96-18.83-1.48l1.01,3.92c0.46,1.8,1.61,3.25,2.94,4.6
	c8.23,8.4,19.19,9.39,17.31-6.63c-0.27-2.18-0.76-3.3-2.38-4.66L226.94,193.7z M240.9,180.2l0.06-0.95c-0.02-0.42-0.02-1.04,0-1.9
	c-0.73,0.15-1.45,0.19-2.14,0.17c-0.89-0.05-1.49-0.12-1.79-0.22l-0.05,0.95l0.02,0.92l-0.04,0.95l0.03,0.93
	c0.38,0.09,1,0.17,1.81,0.26c0.7,0.05,1.41-0.02,2.14-0.19l0,0L240.9,180.2z M236.85,183.88l0.06-0.92
	c-0.03-0.43-0.03-1.07-0.02-1.92c-0.71,0.14-1.44,0.2-2.13,0.17c-0.89-0.05-1.47-0.12-1.78-0.21l-0.06,0.95l0.04,0.93l-0.07,0.97
	l0.05,0.91c0.4,0.1,1,0.18,1.82,0.26c0.69,0.03,1.4-0.05,2.13-0.17L236.85,183.88z M291.07,166.28l0.06-0.92
	c-0.02-0.42-0.03-1.06-0.02-1.91c-0.72,0.14-1.44,0.2-2.13,0.17c-0.89-0.06-1.49-0.13-1.8-0.21l-0.05,0.95l0.02,0.92l-0.05,0.96
	l0.04,0.93c0.4,0.09,1,0.17,1.84,0.26c0.68,0.03,1.38-0.04,2.13-0.17l0,0L291.07,166.28z M287.02,170l0.06-0.93
	c-0.02-0.43-0.02-1.05-0.01-1.91c-0.74,0.14-1.45,0.2-2.14,0.17c-0.89-0.06-1.49-0.14-1.8-0.22l-0.08,0.95l0.06,0.93l-0.07,0.95
	l0.04,0.91c0.4,0.11,1.01,0.19,1.83,0.27c0.68,0.04,1.4-0.02,2.14-0.19L287.02,170z M356.91,101.84l-0.6,0.69l-1.11,1.56l1.83,1.12
	c0.69,0.59,1.12,1.01,1.31,1.26l0.62-0.75l0.5-0.75l0.6-0.75l0.52-0.77l-1.33-1.29l-1.83-1.13l0,0L356.91,101.84z M362.35,101.24
	l-0.59,0.72l-1.12,1.54c0.69,0.32,1.3,0.71,1.83,1.13l1.32,1.26l0.61-0.73l0.5-0.77l0.62-0.73l0.5-0.77l-1.33-1.28
	c-0.53-0.45-1.14-0.82-1.82-1.16L362.35,101.24z M228.03,206.84v-0.93c-0.28-2.48-0.02-1.64-2.26-1.59
	c-0.89,0.02-1.49-0.01-1.8-0.08v0.96l0.1,0.9l0.02,0.96l0.1,0.93c0.41,0.06,1.02,0.1,1.85,0.13c0.68-0.03,1.39-0.14,2.11-0.34
	L228.03,206.84z M466.37,127.81l0.68-0.61c1.69-1.82,1.24-1.1-0.28-2.76l-1.11-1.45l-0.73,0.64l-0.61,0.67l-0.71,0.64l-0.62,0.68
	l1.1,1.5l1.64,1.4L466.37,127.81z M499.61,123.04l0.71-0.6l1.34-1.37l-1.64-1.39l-1.12-1.43l-0.7,0.6l-0.64,0.69l-0.69,0.62
	l-0.62,0.68l1.1,1.5l1.63,1.4l0,0L499.61,123.04z M494.16,122.78l0.68-0.62l1.34-1.35l-1.63-1.4l-1.13-1.46l-0.7,0.64l-0.62,0.68
	l-0.73,0.62l-0.61,0.7l1.11,1.47l1.63,1.41L494.16,122.78z M444.02,120.87l0.68-0.61l1.34-1.37l-1.62-1.39l-1.12-1.44l-0.72,0.63
	l-0.62,0.68l-0.71,0.62l-0.61,0.69l1.11,1.49l1.63,1.39l0,0L444.02,120.87z M438.55,120.6l0.7-0.61l1.33-1.37l-1.64-1.38l-1.11-1.44
	l-0.72,0.63l-0.62,0.67l-0.72,0.64l-0.61,0.68l1.1,1.49l1.63,1.4L438.55,120.6z M438.08,90.34l0.5-0.77c1.16-2.2,0.91-1.36-0.98-2.6
	c-0.75-0.48-1.23-0.84-1.45-1.08l-0.53,0.79l-0.41,0.83l-0.54,0.79l-0.43,0.83l1.45,1.15c0.59,0.37,1.24,0.68,1.94,0.91
	L438.08,90.34z M420.33,113.94l0.51-0.77c1.13-2.19,0.91-1.37-1-2.58c-0.75-0.5-1.22-0.87-1.44-1.1l-0.54,0.8l-0.42,0.81l-0.54,0.8
	l-0.42,0.81l1.45,1.16c0.58,0.38,1.22,0.69,1.94,0.92L420.33,113.94z M548.62,130.38c-0.1,0.68,0.62,1.95-0.62,2.57
	c-2.45,1.19-4.79-2.06-3.92-5.97l-0.73-0.4l-0.46,1.3c-0.5,1.4-2.74,2.34-4.64,1.87c-1.21-0.31-2.49-1.32-3.79-3.61
	c-1.64-2.92-0.67-7.27,0.23-11.37c0.55-2.37,1.13-9.94,0.18-8.35l-1.42,2.37c-0.54,0.91-0.24,2.18-0.24,3.32
	c0,2.34-0.23,4.75-1.74,6.41c-2.8,3.09-8.94,5.34-9.47-0.55c-0.26-2.91,0.21-8.28,0.14-8.16l-1.4,2.44
	c-0.54,0.98-0.45,2.4-0.51,3.78c-0.2,4.3,0.86,9.16,4.82,9.42c1.81,0.11,4.05-1.86,5.72-3.85l0.95,0.98
	c-1.43,11.13,6.44,12.03,8.89,9.88c4.2-3.75,1.01,2.88,3.92,4.13c3.14,1.33,5.99-4.33,6.15-7.52L548.62,130.38z M343.75,119.22
	l0.5-0.78c1.14-2.18,0.91-1.36-1-2.59c-0.73-0.49-1.22-0.86-1.44-1.09l-0.52,0.79l-0.42,0.83l-0.54,0.8l-0.43,0.81l1.46,1.16
	c0.57,0.38,1.23,0.68,1.94,0.92L343.75,119.22z"/>
<g>
	<path class="st6" d="M357.39,784.34L357.39,784.34v-58.75h55.2v9.94h-40.16v13.02h28.93v9.91h-28.93v15.99h41.58v9.9H357.39z
		 M502.51,779.19L502.51,779.19c-3.64,1.77-9.35,4.18-13.49,5.1c-4.14,0.93-8.41,1.4-12.76,1.4c-4.67,0-9.15-0.53-13.45-1.58
		c-4.31-1.05-8.26-2.57-11.87-4.55c-5.03-2.82-8.92-6.27-11.63-10.38c-2.7-4.08-4.05-8.56-4.05-13.42c0-8.59,3.94-15.75,11.81-21.45
		c7.86-5.71,17.69-8.54,29.51-8.54c4.3,0,8.42,0.44,12.37,1.31c3.92,0.87,7.79,2.2,11.51,3.98l-5.61,7.83
		c-3.26-2.41-2.51-1.05-6.05-2.23c-3.57-1.19-7.31-1.8-11.27-1.8c-8.07,0-14.69,1.95-19.85,5.85c-5.15,3.89-7.73,8.89-7.73,14.98
		c0,5.92,2.52,10.78,7.55,14.63c5.03,3.84,11.43,5.77,19.18,5.77c4.44,0,8.65-0.7,12.68-2.02c4.04-1.35,2.38-0.83,6.47-3.68
		L502.51,779.19z M543.57,736.87L543.57,736.87v16.07h8.26c5.96,0,9.95-0.29,11.96-0.87c2-0.61,3.58-1.53,4.73-2.79
		c1.13-1.26,1.7-2.73,1.7-4.41c0-2.05-0.81-3.77-2.41-5.1c-1.58-1.33-3.63-2.17-6.07-2.52c-1.81-0.26-5.43-0.37-10.87-0.37H543.57z
		 M528.44,783.96L528.44,783.96v-56.7h24.27c9.19,0,15.18,0.3,17.96,0.86c4.3,0.85,7.9,2.69,10.81,5.54
		c2.91,2.85,4.35,6.54,4.35,11.04c0,3.49-0.85,6.42-2.51,8.78c-1.67,2.37-3.78,4.24-6.37,5.6c-2.57,1.35-5.17,2.25-7.82,2.68
		c-3.62,0.54-8.85,0.82-15.7,0.82h-9.84v21.38H528.44z M281.98,773.12c3.69,1.14,5.61,2.13,8.69,2.64c3.1,0.54,6.01,0.8,8.75,0.8
		c4.71,0,8.48-0.67,11.26-2.07c2.77-1.38,4.16-3.2,4.16-5.53c0-3.38-5.31-7.25-15.98-11.63c-1.26-0.53-2.19-0.92-2.83-1.17
		c-6.8-2.82-11.58-5.44-14.32-7.84c-2.7-2.41-4.09-5.1-4.09-8.11c0-4.33,2.78-7.96,8.28-10.84c5.51-2.91,12.32-4.36,20.47-4.36
		c3.57,0,7,0.23,10.31,0.64c3.3,0.44,6.58,1.08,9.82,1.96l-3.31,7.21c-2.99-1.05-2.58-1.29-5.47-1.82
		c-2.84-0.49-5.65-0.77-8.45-0.77c-4.9,0-8.78,0.71-11.73,2.17c-2.94,1.43-4.4,3.33-4.4,5.73c0,3.3,5.64,7.22,16.92,11.75
		c1.04,0.42,1.88,0.73,2.43,0.95c6.57,2.66,11.19,5.2,13.95,7.66c2.71,2.44,4.08,5.24,4.08,8.41c0,4.39-2.83,8.04-8.45,10.88
		c-5.61,2.85-12.77,4.28-21.56,4.28c-3.2,0-6.44-0.24-9.74-0.7c-3.29-0.48-8.69-2.28-12.23-3.24L281.98,773.12z"/>
</g>
</svg>
